<svg width="48" height="48" viewBox="0 0 48 48" fill="none" xmlns="http://www.w3.org/2000/svg">
<path opacity="0.2" d="M44.625 44.2507C44.624 44.8473 42.4506 45.4195 38.5828 45.8414C34.7149 46.2633 29.4694 46.5003 24 46.5003C18.5306 46.5003 13.2851 46.2633 9.41724 45.8414C5.54941 45.4195 3.37599 44.8473 3.375 44.2507C3.37451 43.9552 3.90763 43.6625 4.94391 43.3895C5.9802 43.1165 7.49935 42.8684 9.4146 42.6594C11.3299 42.4505 13.6037 42.2847 16.1063 42.1716C18.6089 42.0585 21.2912 42.0003 24 42.0003C26.7088 42.0003 29.3911 42.0585 31.8937 42.1716C34.3963 42.2847 36.6701 42.4505 38.5854 42.6594C40.5007 42.8684 42.0198 43.1165 43.0561 43.3895C44.0924 43.6625 44.6255 43.9552 44.625 44.2507Z" fill="url(#paint0_radial)"/>
<g opacity="0.4">
<path opacity="0.4" d="M44.25 43.5007H38.9211V45.3757H44.25V43.5007Z" fill="url(#paint1_radial)"/>
<path opacity="0.4" d="M3.75 45.3757H9.07895V43.5007H3.75V45.3757Z" fill="url(#paint2_radial)"/>
<path opacity="0.4" d="M38.9211 43.5007H9.07895V45.3757H38.9211V43.5007Z" fill="url(#paint3_linear)"/>
</g>
<path d="M41.4375 6H6.5625C5.63052 6 4.875 6.75552 4.875 7.6875V42.5625C4.875 43.4945 5.63052 44.25 6.5625 44.25H41.4375C42.3695 44.25 43.125 43.4945 43.125 42.5625V7.6875C43.125 6.75552 42.3695 6 41.4375 6Z" fill="#FFBF44"/>
<path d="M41.4375 6.18817H6.56249C5.73407 6.18817 5.06249 6.85974 5.06249 7.68817V42.5632C5.06249 43.3916 5.73407 44.0632 6.56249 44.0632H41.4375C42.2659 44.0632 42.9375 43.3916 42.9375 42.5632V7.68817C42.9375 6.85974 42.2659 6.18817 41.4375 6.18817Z" stroke="url(#paint4_linear)" stroke-linecap="round" stroke-linejoin="round"/>
<path opacity="0.25" d="M41.4375 5.81319H6.5625C5.52697 5.81319 4.6875 6.65265 4.6875 7.68819V42.5632C4.6875 43.5987 5.52697 44.4382 6.5625 44.4382H41.4375C42.473 44.4382 43.3125 43.5987 43.3125 42.5632V7.68819C43.3125 6.65265 42.473 5.81319 41.4375 5.81319Z" stroke="black"/>
<path d="M21.5654 11.25H4.875V33H21.5654C23.5282 33 25.125 31.4648 25.125 29.5778V14.6722C25.125 12.7852 23.5282 11.25 21.5654 11.25Z" fill="#696969" fill-opacity="0.24"/>
<path d="M20.9473 10.5H4.875V32.25H20.9473C22.8373 32.25 24.375 30.7148 24.375 28.8278V13.9222C24.375 12.0352 22.8373 10.5 20.9473 10.5Z" fill="#404040"/>
<path d="M18.2351 25.875H17.6316C17.0067 25.875 16.5 26.3817 16.5 27.0066C16.5 27.6315 17.0067 28.1382 17.6316 28.1382H18.2351C18.86 28.1382 19.3667 27.6315 19.3667 27.0066C19.3667 26.3817 18.86 25.875 18.2351 25.875Z" fill="#DAD0CB"/>
<path d="M9.17505 22.292C9.17505 22.9169 9.6817 23.4236 10.3066 23.4236H10.9102C11.5351 23.4236 12.0417 22.9169 12.0417 22.292C12.0417 21.6671 11.5351 21.1604 10.9102 21.1604H10.3066C9.6817 21.1604 9.17505 21.6671 9.17505 22.292Z" fill="#DAD0CB"/>
<path d="M7.28906 18.5955H9.09961C9.72455 18.5955 10.2312 18.0888 10.2312 17.4639C10.2312 16.8389 9.72455 16.3323 9.09961 16.3323H7.28906C6.66412 16.3323 6.15747 16.8389 6.15747 17.4639C6.15747 18.0888 6.66412 18.5955 7.28906 18.5955Z" fill="#DAD0CB"/>
<path d="M16.3418 18.5955H18.1523C18.7773 18.5955 19.2839 18.0888 19.2839 17.4639C19.2839 16.8389 18.7773 16.3323 18.1523 16.3323H16.3418C15.7169 16.3323 15.2102 16.8389 15.2102 17.4639C15.2102 18.0888 15.7169 18.5955 16.3418 18.5955Z" fill="#DAD0CB"/>
<path d="M18.1523 21.1604H15.7383C15.1133 21.1604 14.6067 21.6671 14.6067 22.292C14.6067 22.9169 15.1133 23.4236 15.7383 23.4236H18.1523C18.7773 23.4236 19.2839 22.9169 19.2839 22.292C19.2839 21.6671 18.7773 21.1604 18.1523 21.1604Z" fill="#DAD0CB"/>
<path d="M5.47852 21.1604H4.875V23.4236H5.47852C6.10346 23.4236 6.61011 22.9169 6.61011 22.292C6.61011 21.6671 6.10346 21.1604 5.47852 21.1604Z" fill="#DAD0CB"/>
<path d="M12.6218 25.875H4.87501C4.87501 25.875 4.87501 26.3817 4.87501 27.0066C4.87501 27.6315 4.875 28.1382 4.875 28.1382H12.6218C13.2468 28.1382 13.7534 27.6315 13.7534 27.0066C13.7534 26.3817 13.2468 25.875 12.6218 25.875Z" fill="#3AAAFF"/>
<path d="M10.625 38.815C10.8414 38.6905 11.0867 38.625 11.3364 38.625H39.1875C40.1195 38.625 40.875 39.3805 40.875 40.3125V40.3125C40.875 41.2445 40.1195 42 39.1875 42H11.5499C11.1587 42 10.7728 41.91 10.422 41.737L9.48524 41.275C9.18813 41.1285 9 40.826 9 40.4947V40.4947C9 40.2275 9.12277 39.9751 9.33297 39.8102L10.4555 38.9293C10.5092 38.8872 10.5658 38.849 10.625 38.815V38.815Z" fill="#696969" fill-opacity="0.24"/>
<rect x="10.9202" y="38.625" width="29.1867" height="1.92857" rx="0.964283" fill="#696969" fill-opacity="0.24"/>
<path d="M9.87497 38.065C10.0914 37.9405 10.3367 37.875 10.5864 37.875H38.4375C39.3695 37.875 40.125 38.6305 40.125 39.5625V39.5625C40.125 40.4945 39.3695 41.25 38.4375 41.25H10.7999C10.4087 41.25 10.0228 41.16 9.67205 40.987L8.73524 40.525C8.43813 40.3785 8.25 40.076 8.25 39.7447V39.7447C8.25 39.4775 8.37277 39.2251 8.58297 39.0602L9.70553 38.1793C9.75921 38.1372 9.81583 38.099 9.87497 38.065V38.065Z" fill="#EAEAEA"/>
<rect x="10.1702" y="37.875" width="29.1867" height="1.92857" rx="0.964283" fill="#F7F7F7"/>
<path d="M35.1761 29.625H33.5739C30.7763 29.625 28.5 27.3874 28.5 24.6375V18.8625C28.5 16.1125 30.7763 13.875 33.5739 13.875H35.1761C37.9737 13.875 40.25 16.1125 40.25 18.8625V24.6375C40.25 27.3874 37.9737 29.625 35.1761 29.625Z" fill="#696969" fill-opacity="0.24"/>
<path d="M34.375 21.225C33.7843 21.225 33.3068 20.7546 33.3068 20.175V18.075C33.3068 17.4954 33.7843 17.025 34.375 17.025C34.9657 17.025 35.4432 17.4954 35.4432 18.075V20.175C35.4432 20.7546 34.9657 21.225 34.375 21.225Z" fill="#696969" fill-opacity="0.24"/>
<path d="M34.375 13.875H33.5739C33.4841 13.875 33.3955 13.8771 33.3068 13.8813C30.6332 14.0188 28.5 16.2007 28.5 18.8625V24.6375C28.5 27.3874 30.7763 29.625 33.5739 29.625H34.375V21.225C33.7843 21.225 33.3068 20.7546 33.3068 20.175V18.075C33.3068 17.4954 33.7843 17.025 34.375 17.025V13.875Z" fill="#696969" fill-opacity="0.24"/>
<path d="M34.375 17.025C33.7843 17.025 33.3068 17.4954 33.3068 18.075V20.175C33.3068 20.7546 33.7843 21.225 34.375 21.225V17.025Z" fill="#696969" fill-opacity="0.24"/>
<path d="M34.75 28.875H33.25C30.631 28.875 28.5 26.744 28.5 24.125V18.625C28.5 16.006 30.631 13.875 33.25 13.875H34.75C37.369 13.875 39.5 16.006 39.5 18.625V24.125C39.5 26.744 37.369 28.875 34.75 28.875Z" fill="#2196F3"/>
<path d="M34 20.875C33.447 20.875 33 20.427 33 19.875V17.875C33 17.323 33.447 16.875 34 16.875C34.553 16.875 35 17.323 35 17.875V19.875C35 20.427 34.553 20.875 34 20.875Z" fill="white"/>
<path d="M34 13.875H33.25C33.166 13.875 33.083 13.877 33 13.881C30.497 14.012 28.5 16.09 28.5 18.625V24.125C28.5 26.744 30.631 28.875 33.25 28.875H34V20.875C33.447 20.875 33 20.427 33 19.875V17.875C33 17.323 33.447 16.875 34 16.875V13.875Z" fill="#1D83D4"/>
<path d="M34 16.875C33.447 16.875 33 17.323 33 17.875V19.875C33 20.427 33.447 20.875 34 20.875V16.875Z" fill="#DEDEDE"/>
<defs>
<radialGradient id="paint0_radial" cx="0" cy="0" r="1" gradientUnits="userSpaceOnUse" gradientTransform="translate(24 44.2507) scale(20.625 2.25)">
<stop/>
<stop offset="1" stop-opacity="0"/>
</radialGradient>
<radialGradient id="paint1_radial" cx="0" cy="0" r="1" gradientUnits="userSpaceOnUse" gradientTransform="translate(38.9136 44.4382) scale(5.33903 0.9375)">
<stop stop-color="#181818"/>
<stop offset="1" stop-color="#181818" stop-opacity="0"/>
</radialGradient>
<radialGradient id="paint2_radial" cx="0" cy="0" r="1" gradientUnits="userSpaceOnUse" gradientTransform="translate(9.08643 44.4382) rotate(180) scale(5.33903 0.9375)">
<stop stop-color="#181818"/>
<stop offset="1" stop-color="#181818" stop-opacity="0"/>
</radialGradient>
<linearGradient id="paint3_linear" x1="25.1277" y1="45.3831" x2="25.1277" y2="43.5005" gradientUnits="userSpaceOnUse">
<stop stop-color="#181818" stop-opacity="0"/>
<stop offset="0.5" stop-color="#181818"/>
<stop offset="1" stop-color="#181818" stop-opacity="0"/>
</linearGradient>
<linearGradient id="paint4_linear" x1="24" y1="6.28107" x2="24" y2="43.8191" gradientUnits="userSpaceOnUse">
<stop stop-color="#FFB017"/>
<stop offset="0.0375031" stop-color="white" stop-opacity="0.235294"/>
<stop offset="0.966673" stop-color="white" stop-opacity="0.156863"/>
<stop offset="1" stop-color="white" stop-opacity="0.392157"/>
</linearGradient>
</defs>
</svg>
