<svg width="24" height="24" viewBox="0 0 24 24" fill="none" xmlns="http://www.w3.org/2000/svg">
<path opacity="0.2" d="M22.3125 22.1253C22.312 22.4237 21.2253 22.7098 19.2914 22.9207C17.3575 23.1316 14.7347 23.2501 12 23.2501C9.26528 23.2501 6.64254 23.1316 4.70862 22.9207C2.77471 22.7098 1.68799 22.4237 1.6875 22.1253C1.68726 21.9776 1.95381 21.8313 2.47196 21.6947C2.9901 21.5582 3.74967 21.4342 4.7073 21.3297C5.66493 21.2252 6.80185 21.1423 8.05315 21.0858C9.30444 21.0292 10.6456 21.0001 12 21.0001C13.3544 21.0001 14.6956 21.0292 15.9469 21.0858C17.1981 21.1423 18.3351 21.2252 19.2927 21.3297C20.2503 21.4342 21.0099 21.5582 21.528 21.6947C22.0462 21.8313 22.3127 21.9776 22.3125 22.1253Z" fill="url(#paint0_radial)"/>
<g opacity="0.4">
<path opacity="0.4" d="M22.125 21.7504H19.4605V22.6879H22.125V21.7504Z" fill="url(#paint1_radial)"/>
<path opacity="0.4" d="M1.875 22.6879H4.53947V21.7504H1.875V22.6879Z" fill="url(#paint2_radial)"/>
<path opacity="0.4" d="M19.4605 21.7504H4.53947V22.6879H19.4605V21.7504Z" fill="url(#paint3_linear)"/>
</g>
<path d="M20.7188 3H3.28125C2.81526 3 2.4375 3.37776 2.4375 3.84375V21.2812C2.4375 21.7472 2.81526 22.125 3.28125 22.125H20.7188C21.1847 22.125 21.5625 21.7472 21.5625 21.2812V3.84375C21.5625 3.37776 21.1847 3 20.7188 3Z" fill="#FFBF44"/>
<path d="M20.7187 3.0941H3.28125C2.86703 3.0941 2.53125 3.42989 2.53125 3.8441V21.2816C2.53125 21.6958 2.86703 22.0316 3.28125 22.0316H20.7187C21.133 22.0316 21.4687 21.6958 21.4687 21.2816V3.8441C21.4687 3.42989 21.133 3.0941 20.7187 3.0941Z" stroke="url(#paint4_linear)" stroke-linecap="round" stroke-linejoin="round"/>
<path opacity="0.25" d="M20.7187 2.9066H3.28125C2.76348 2.9066 2.34375 3.32633 2.34375 3.8441V21.2816C2.34375 21.7994 2.76348 22.2191 3.28125 22.2191H20.7187C21.2365 22.2191 21.6562 21.7994 21.6562 21.2816V3.8441C21.6562 3.32633 21.2365 2.9066 20.7187 2.9066Z" stroke="black"/>
<path d="M10.7827 5.625H2.4375V16.5H10.7827C11.7641 16.5 12.5625 15.7324 12.5625 14.7889V7.3361C12.5625 6.3926 11.7641 5.625 10.7827 5.625Z" fill="#696969" fill-opacity="0.24"/>
<path d="M10.4736 5.25H2.4375V16.125H10.4736C11.4187 16.125 12.1875 15.3574 12.1875 14.4139V6.9611C12.1875 6.0176 11.4187 5.25 10.4736 5.25Z" fill="#404040"/>
<path d="M9.11755 12.9375H8.8158C8.50333 12.9375 8.25 13.1908 8.25 13.5033C8.25 13.8158 8.50333 14.0691 8.8158 14.0691H9.11755C9.43002 14.0691 9.68335 13.8158 9.68335 13.5033C9.68335 13.1908 9.43002 12.9375 9.11755 12.9375Z" fill="#DAD0CB"/>
<path d="M4.58752 11.146C4.58752 11.4585 4.84085 11.7118 5.15332 11.7118H5.45508C5.76755 11.7118 6.02087 11.4585 6.02087 11.146C6.02087 10.8335 5.76755 10.5802 5.45508 10.5802H5.15332C4.84085 10.5802 4.58752 10.8335 4.58752 11.146Z" fill="#DAD0CB"/>
<path d="M3.64453 9.29773H4.5498C4.86227 9.29773 5.1156 9.0444 5.1156 8.73193C5.1156 8.41946 4.86227 8.16614 4.5498 8.16614H3.64453C3.33206 8.16614 3.07874 8.41946 3.07874 8.73193C3.07874 9.0444 3.33206 9.29773 3.64453 9.29773Z" fill="#DAD0CB"/>
<path d="M8.1709 9.29773H9.07617C9.38864 9.29773 9.64197 9.0444 9.64197 8.73193C9.64197 8.41946 9.38864 8.16614 9.07617 8.16614H8.1709C7.85843 8.16614 7.6051 8.41946 7.6051 8.73193C7.6051 9.0444 7.85843 9.29773 8.1709 9.29773Z" fill="#DAD0CB"/>
<path d="M9.07617 10.5802H7.86914C7.55667 10.5802 7.30334 10.8335 7.30334 11.146C7.30334 11.4585 7.55667 11.7118 7.86914 11.7118H9.07617C9.38864 11.7118 9.64197 11.4585 9.64197 11.146C9.64197 10.8335 9.38864 10.5802 9.07617 10.5802Z" fill="#DAD0CB"/>
<path d="M2.73926 10.5802H2.4375V11.7118H2.73926C3.05173 11.7118 3.30505 11.4585 3.30505 11.146C3.30505 10.8335 3.05173 10.5802 2.73926 10.5802Z" fill="#DAD0CB"/>
<path d="M6.31092 12.9375H2.4375C2.4375 12.9375 2.4375 13.1908 2.4375 13.5033C2.4375 13.8158 2.4375 14.0691 2.4375 14.0691H6.31092C6.62339 14.0691 6.87671 13.8158 6.87671 13.5033C6.87671 13.1908 6.62339 12.9375 6.31092 12.9375Z" fill="#3AAAFF"/>
<path d="M5.31248 19.4075C5.4207 19.3453 5.54334 19.3125 5.66818 19.3125H19.5937C20.0597 19.3125 20.4375 19.6903 20.4375 20.1563V20.1563C20.4375 20.6222 20.0597 21 19.5938 21H5.77493C5.57936 21 5.38642 20.955 5.21102 20.8685L4.74262 20.6375C4.59406 20.5642 4.5 20.413 4.5 20.2473V20.2473C4.5 20.1137 4.56138 19.9875 4.66649 19.9051L5.22777 19.4647C5.2546 19.4436 5.28291 19.4245 5.31248 19.4075V19.4075Z" fill="#696969" fill-opacity="0.24"/>
<rect x="5.46009" y="19.3125" width="14.5934" height="0.964283" rx="0.482141" fill="#696969" fill-opacity="0.24"/>
<path d="M4.93748 19.0325C5.0457 18.9703 5.16834 18.9375 5.29318 18.9375H19.2187C19.6847 18.9375 20.0625 19.3153 20.0625 19.7813V19.7813C20.0625 20.2472 19.6847 20.625 19.2188 20.625H5.39993C5.20436 20.625 5.01142 20.58 4.83602 20.4935L4.36762 20.2625C4.21906 20.1892 4.125 20.038 4.125 19.8723V19.8723C4.125 19.7387 4.18638 19.6125 4.29149 19.5301L4.85277 19.0897C4.8796 19.0686 4.90791 19.0495 4.93748 19.0325V19.0325Z" fill="#EAEAEA"/>
<rect x="5.08509" y="18.9375" width="14.5934" height="0.964283" rx="0.482141" fill="#F7F7F7"/>
<path d="M17.5881 14.8125H16.7869C15.3881 14.8125 14.25 13.6937 14.25 12.3187V9.43125C14.25 8.05627 15.3881 6.9375 16.7869 6.9375H17.5881C18.9869 6.9375 20.125 8.05627 20.125 9.43125V12.3187C20.125 13.6937 18.9869 14.8125 17.5881 14.8125Z" fill="#696969" fill-opacity="0.24"/>
<path d="M17.1875 10.6125C16.8922 10.6125 16.6534 10.3773 16.6534 10.0875V9.03751C16.6534 8.74771 16.8922 8.51251 17.1875 8.51251C17.4829 8.51251 17.7216 8.74771 17.7216 9.03751V10.0875C17.7216 10.3773 17.4829 10.6125 17.1875 10.6125Z" fill="#696969" fill-opacity="0.24"/>
<path d="M17.1875 6.9375H16.7869C16.7421 6.9375 16.6977 6.93855 16.6534 6.94065C15.3166 7.00942 14.25 8.10037 14.25 9.43125V12.3187C14.25 13.6937 15.3881 14.8125 16.7869 14.8125H17.1875V10.6125C16.8922 10.6125 16.6534 10.3773 16.6534 10.0875V9.0375C16.6534 8.7477 16.8922 8.5125 17.1875 8.5125V6.9375Z" fill="#696969" fill-opacity="0.24"/>
<path d="M17.1875 8.51251C16.8921 8.51251 16.6534 8.74771 16.6534 9.03751V10.0875C16.6534 10.3773 16.8921 10.6125 17.1875 10.6125V8.51251Z" fill="#696969" fill-opacity="0.24"/>
<path d="M17.375 14.4375H16.625C15.3155 14.4375 14.25 13.372 14.25 12.0625V9.3125C14.25 8.003 15.3155 6.9375 16.625 6.9375H17.375C18.6845 6.9375 19.75 8.003 19.75 9.3125V12.0625C19.75 13.372 18.6845 14.4375 17.375 14.4375Z" fill="#2196F3"/>
<path d="M17 10.4375C16.7235 10.4375 16.5 10.2135 16.5 9.9375V8.9375C16.5 8.6615 16.7235 8.4375 17 8.4375C17.2765 8.4375 17.5 8.6615 17.5 8.9375V9.9375C17.5 10.2135 17.2765 10.4375 17 10.4375Z" fill="white"/>
<path d="M17 6.9375H16.625C16.583 6.9375 16.5415 6.9385 16.5 6.9405C15.2485 7.006 14.25 8.045 14.25 9.3125V12.0625C14.25 13.372 15.3155 14.4375 16.625 14.4375H17V10.4375C16.7235 10.4375 16.5 10.2135 16.5 9.9375V8.9375C16.5 8.6615 16.7235 8.4375 17 8.4375V6.9375Z" fill="#1D83D4"/>
<path d="M17 8.4375C16.7235 8.4375 16.5 8.6615 16.5 8.9375V9.9375C16.5 10.2135 16.7235 10.4375 17 10.4375V8.4375Z" fill="#DEDEDE"/>
<defs>
<radialGradient id="paint0_radial" cx="0" cy="0" r="1" gradientUnits="userSpaceOnUse" gradientTransform="translate(12 22.1253) scale(10.3125 1.125)">
<stop/>
<stop offset="1" stop-opacity="0"/>
</radialGradient>
<radialGradient id="paint1_radial" cx="0" cy="0" r="1" gradientUnits="userSpaceOnUse" gradientTransform="translate(19.4568 22.2191) scale(2.66951 0.46875)">
<stop stop-color="#181818"/>
<stop offset="1" stop-color="#181818" stop-opacity="0"/>
</radialGradient>
<radialGradient id="paint2_radial" cx="0" cy="0" r="1" gradientUnits="userSpaceOnUse" gradientTransform="translate(4.54321 22.2191) rotate(180) scale(2.66952 0.46875)">
<stop stop-color="#181818"/>
<stop offset="1" stop-color="#181818" stop-opacity="0"/>
</radialGradient>
<linearGradient id="paint3_linear" x1="12.5639" y1="22.6916" x2="12.5639" y2="21.7503" gradientUnits="userSpaceOnUse">
<stop stop-color="#181818" stop-opacity="0"/>
<stop offset="0.5" stop-color="#181818"/>
<stop offset="1" stop-color="#181818" stop-opacity="0"/>
</linearGradient>
<linearGradient id="paint4_linear" x1="12" y1="3.14055" x2="12" y2="21.9096" gradientUnits="userSpaceOnUse">
<stop stop-color="#FFB017"/>
<stop offset="0.0375031" stop-color="white" stop-opacity="0.235294"/>
<stop offset="0.966673" stop-color="white" stop-opacity="0.156863"/>
<stop offset="1" stop-color="white" stop-opacity="0.392157"/>
</linearGradient>
</defs>
</svg>
