<svg width="128" height="128" viewBox="0 0 128 128" fill="none" xmlns="http://www.w3.org/2000/svg">
<path opacity="0.2" d="M119 118.002C118.997 119.593 113.202 121.119 102.887 122.244C92.5731 123.369 78.5852 124.001 64 124.001C49.4148 124.001 35.4269 123.369 25.1126 122.244C14.7984 121.119 9.00264 119.593 9 118.002C8.99869 117.214 10.4203 116.433 13.1838 115.705C15.9472 114.977 19.9983 114.316 25.1056 113.758C30.213 113.201 36.2766 112.759 42.9501 112.458C49.6237 112.156 56.7765 112.001 64 112.001C71.2235 112.001 78.3763 112.156 85.0499 112.458C91.7234 112.759 97.787 113.201 102.894 113.758C108.002 114.316 112.053 114.977 114.816 115.705C117.58 116.433 119.001 117.214 119 118.002Z" fill="url(#paint0_radial)"/>
<g opacity="0.4">
<path opacity="0.4" d="M118 116.002H103.789V121.002H118V116.002Z" fill="url(#paint1_radial)"/>
<path opacity="0.4" d="M10 121.002H24.2105V116.002H10V121.002Z" fill="url(#paint2_radial)"/>
<path opacity="0.4" d="M103.789 116.002H24.2105V121.002H103.789V116.002Z" fill="url(#paint3_linear)"/>
</g>
<path d="M110.5 16H17.5C15.0147 16 13 18.0147 13 20.5V113.5C13 115.985 15.0147 118 17.5 118H110.5C112.985 118 115 115.985 115 113.5V20.5C115 18.0147 112.985 16 110.5 16Z" fill="#FFBF44"/>
<path d="M110.5 16.5018H17.5C15.2909 16.5018 13.5 18.2927 13.5 20.5018V113.502C13.5 115.711 15.2909 117.502 17.5 117.502H110.5C112.709 117.502 114.5 115.711 114.5 113.502V20.5018C114.5 18.2927 112.709 16.5018 110.5 16.5018Z" stroke="url(#paint4_linear)" stroke-linecap="round" stroke-linejoin="round"/>
<path opacity="0.25" d="M110.5 15.5018H17.5C14.7386 15.5018 12.5 17.7404 12.5 20.5018V113.502C12.5 116.263 14.7386 118.502 17.5 118.502H110.5C113.261 118.502 115.5 116.263 115.5 113.502V20.5018C115.5 17.7404 113.261 15.5018 110.5 15.5018Z" stroke="black"/>
<path d="M57.5078 30H13V88H57.5078C62.7418 88 67 83.9061 67 78.8741V39.1259C67 34.0939 62.7418 30 57.5078 30Z" fill="#696969" fill-opacity="0.24"/>
<path d="M55.8594 28H13V86H55.8594C60.8995 86 65 81.9061 65 76.8741V37.1259C65 32.0939 60.8995 28 55.8594 28Z" fill="#404040"/>
<path d="M48.627 69H47.0176C45.3511 69 44 70.3511 44 72.0176C44 73.6841 45.3511 75.0352 47.0176 75.0352H48.627C50.2935 75.0352 51.6445 73.6841 51.6445 72.0176C51.6445 70.3511 50.2935 69 48.627 69Z" fill="#DAD0CB"/>
<path d="M24.4668 59.4453C24.4668 61.1118 25.8179 62.4629 27.4844 62.4629H29.0938C30.7603 62.4629 32.1113 61.1118 32.1113 59.4453C32.1113 57.7788 30.7603 56.4277 29.0938 56.4277H27.4844C25.8179 56.4277 24.4668 57.7788 24.4668 59.4453Z" fill="#DAD0CB"/>
<path d="M19.4375 49.5879H24.2656C25.9321 49.5879 27.2832 48.2368 27.2832 46.5703C27.2832 44.9038 25.9321 43.5527 24.2656 43.5527H19.4375C17.771 43.5527 16.4199 44.9038 16.4199 46.5703C16.4199 48.2368 17.771 49.5879 19.4375 49.5879Z" fill="#DAD0CB"/>
<path d="M43.5781 49.5879H48.4062C50.0728 49.5879 51.4238 48.2368 51.4238 46.5703C51.4238 44.9038 50.0728 43.5527 48.4062 43.5527H43.5781C41.9116 43.5527 40.5605 44.9038 40.5605 46.5703C40.5605 48.2368 41.9116 49.5879 43.5781 49.5879Z" fill="#DAD0CB"/>
<path d="M48.4062 56.4277H41.9688C40.3022 56.4277 38.9512 57.7788 38.9512 59.4453C38.9512 61.1118 40.3022 62.4629 41.9688 62.4629H48.4062C50.0728 62.4629 51.4238 61.1118 51.4238 59.4453C51.4238 57.7788 50.0728 56.4277 48.4062 56.4277Z" fill="#DAD0CB"/>
<path d="M14.6094 56.4277H13V62.4629H14.6094C16.2759 62.4629 17.627 61.1118 17.627 59.4453C17.627 57.7788 16.2759 56.4277 14.6094 56.4277Z" fill="#DAD0CB"/>
<path d="M33.6582 69H13C13 69 13 70.3511 13 72.0176C13 73.6841 13 75.0352 13 75.0352H33.6582C35.3247 75.0352 36.6758 73.6841 36.6758 72.0176C36.6758 70.3511 35.3247 69 33.6582 69Z" fill="#3AAAFF"/>
<path d="M28.3332 103.507C28.9104 103.175 29.5645 103 30.2303 103H104.5C106.985 103 109 105.015 109 107.5V107.5C109 109.985 106.985 112 104.5 112H30.7996C29.7566 112 28.7276 111.76 27.7921 111.299L25.294 110.067C24.5017 109.676 24 108.869 24 107.986V107.986C24 107.273 24.3274 106.6 24.8879 106.16L27.8814 103.812C28.0245 103.699 28.1755 103.597 28.3332 103.507V103.507Z" fill="#696969" fill-opacity="0.24"/>
<rect x="29.1205" y="103" width="77.8313" height="5.14286" rx="2.57143" fill="#696969" fill-opacity="0.24"/>
<path d="M26.3332 101.507C26.9104 101.175 27.5645 101 28.2303 101H102.5C104.985 101 107 103.015 107 105.5V105.5C107 107.985 104.985 110 102.5 110H28.7996C27.7566 110 26.7276 109.76 25.7921 109.299L23.294 108.067C22.5017 107.676 22 106.869 22 105.986V105.986C22 105.273 22.3274 104.6 22.8879 104.16L25.8814 101.812C26.0245 101.699 26.1755 101.597 26.3332 101.507V101.507Z" fill="#EAEAEA"/>
<rect x="27.1205" y="101" width="77.8313" height="5.14286" rx="2.57143" fill="#F7F7F7"/>
<path d="M93.803 79H89.5303C82.0701 79 76 73.0332 76 65.7V50.3C76 42.9668 82.0701 37 89.5303 37H93.803C101.263 37 107.333 42.9668 107.333 50.3V65.7C107.333 73.0332 101.263 79 93.803 79Z" fill="#696969" fill-opacity="0.24"/>
<path d="M91.6667 56.6C90.0914 56.6 88.8182 55.3456 88.8182 53.8V48.2C88.8182 46.6544 90.0914 45.4 91.6667 45.4C93.2419 45.4 94.5151 46.6544 94.5151 48.2V53.8C94.5151 55.3456 93.2419 56.6 91.6667 56.6Z" fill="#696969" fill-opacity="0.24"/>
<path d="M91.6667 37H89.5303C89.291 37 89.0546 37.0056 88.8182 37.0168C81.6884 37.3836 76 43.202 76 50.3V65.7C76 73.0332 82.0701 79 89.5303 79H91.6667V56.6C90.0915 56.6 88.8182 55.3456 88.8182 53.8V48.2C88.8182 46.6544 90.0915 45.4 91.6667 45.4V37Z" fill="#696969" fill-opacity="0.24"/>
<path d="M91.6667 45.4C90.0914 45.4 88.8182 46.6544 88.8182 48.2V53.8C88.8182 55.3456 90.0914 56.6 91.6667 56.6V45.4Z" fill="#696969" fill-opacity="0.24"/>
<path d="M92.6667 77H88.6667C81.6827 77 76 71.3173 76 64.3333V49.6667C76 42.6827 81.6827 37 88.6667 37H92.6667C99.6507 37 105.333 42.6827 105.333 49.6667V64.3333C105.333 71.3173 99.6507 77 92.6667 77Z" fill="#2196F3"/>
<path d="M90.6667 55.6667C89.192 55.6667 88 54.472 88 53V47.6667C88 46.1947 89.192 45 90.6667 45C92.1413 45 93.3333 46.1947 93.3333 47.6667V53C93.3333 54.472 92.1413 55.6667 90.6667 55.6667Z" fill="white"/>
<path d="M90.6667 37H88.6667C88.4427 37 88.2213 37.0053 88 37.016C81.3253 37.3653 76 42.9067 76 49.6667V64.3333C76 71.3173 81.6827 77 88.6667 77H90.6667V55.6667C89.192 55.6667 88 54.472 88 53V47.6667C88 46.1947 89.192 45 90.6667 45V37Z" fill="#1D83D4"/>
<path d="M90.6667 45C89.192 45 88 46.1947 88 47.6667V53C88 54.472 89.192 55.6667 90.6667 55.6667V45Z" fill="#DEDEDE"/>
<defs>
<radialGradient id="paint0_radial" cx="0" cy="0" r="1" gradientUnits="userSpaceOnUse" gradientTransform="translate(64 118.002) scale(55 6)">
<stop/>
<stop offset="1" stop-opacity="0"/>
</radialGradient>
<radialGradient id="paint1_radial" cx="0" cy="0" r="1" gradientUnits="userSpaceOnUse" gradientTransform="translate(103.77 118.502) scale(14.2374 2.5)">
<stop stop-color="#181818"/>
<stop offset="1" stop-color="#181818" stop-opacity="0"/>
</radialGradient>
<radialGradient id="paint2_radial" cx="0" cy="0" r="1" gradientUnits="userSpaceOnUse" gradientTransform="translate(24.2305 118.502) rotate(180) scale(14.2374 2.5)">
<stop stop-color="#181818"/>
<stop offset="1" stop-color="#181818" stop-opacity="0"/>
</radialGradient>
<linearGradient id="paint3_linear" x1="67.0072" y1="121.022" x2="67.0072" y2="116.001" gradientUnits="userSpaceOnUse">
<stop stop-color="#181818" stop-opacity="0"/>
<stop offset="0.5" stop-color="#181818"/>
<stop offset="1" stop-color="#181818" stop-opacity="0"/>
</linearGradient>
<linearGradient id="paint4_linear" x1="64" y1="16.7495" x2="64" y2="116.851" gradientUnits="userSpaceOnUse">
<stop stop-color="#FFB017"/>
<stop offset="0.0375031" stop-color="white" stop-opacity="0.235294"/>
<stop offset="0.966673" stop-color="white" stop-opacity="0.156863"/>
<stop offset="1" stop-color="white" stop-opacity="0.392157"/>
</linearGradient>
</defs>
</svg>
