<svg width="16" height="16" viewBox="0 0 16 16" fill="none" xmlns="http://www.w3.org/2000/svg">
<path opacity="0.2" d="M14.875 14.7502C14.8747 14.9491 14.1502 15.1398 12.8609 15.2805C11.5716 15.4211 9.82315 15.5001 8 15.5001C6.17685 15.5001 4.42836 15.4211 3.13908 15.2805C1.8498 15.1398 1.12533 14.9491 1.125 14.7502C1.12484 14.6517 1.30254 14.5542 1.64797 14.4632C1.9934 14.3722 2.49978 14.2895 3.1382 14.2198C3.77662 14.1502 4.53457 14.0949 5.36876 14.0572C6.20296 14.0195 7.09706 14.0001 8 14.0001C8.90294 14.0001 9.79704 14.0195 10.6312 14.0572C11.4654 14.0949 12.2234 14.1502 12.8618 14.2198C13.5002 14.2895 14.0066 14.3722 14.352 14.4632C14.6975 14.5542 14.8752 14.6517 14.875 14.7502Z" fill="url(#paint0_radial)"/>
<g opacity="0.4">
<path opacity="0.4" d="M14.75 14.5002H12.9737V15.1252H14.75V14.5002Z" fill="url(#paint1_radial)"/>
<path opacity="0.4" d="M1.25 15.1252H3.02631V14.5002H1.25V15.1252Z" fill="url(#paint2_radial)"/>
<path opacity="0.4" d="M12.9737 14.5002H3.02631V15.1252H12.9737V14.5002Z" fill="url(#paint3_linear)"/>
</g>
<path d="M13.8125 2H2.1875C1.87684 2 1.625 2.25184 1.625 2.5625V14.1875C1.625 14.4982 1.87684 14.75 2.1875 14.75H13.8125C14.1232 14.75 14.375 14.4982 14.375 14.1875V2.5625C14.375 2.25184 14.1232 2 13.8125 2Z" fill="#FFBF44"/>
<path d="M13.8125 2.06273H2.1875C1.91136 2.06273 1.6875 2.28659 1.6875 2.56273V14.1877C1.6875 14.4639 1.91136 14.6877 2.1875 14.6877H13.8125C14.0886 14.6877 14.3125 14.4639 14.3125 14.1877V2.56273C14.3125 2.28659 14.0886 2.06273 13.8125 2.06273Z" stroke="url(#paint4_linear)" stroke-linecap="round" stroke-linejoin="round"/>
<path opacity="0.25" d="M13.8125 1.93773H2.1875C1.84232 1.93773 1.5625 2.21755 1.5625 2.56273V14.1877C1.5625 14.5329 1.84232 14.8127 2.1875 14.8127H13.8125C14.1577 14.8127 14.4375 14.5329 14.4375 14.1877V2.56273C14.4375 2.21755 14.1577 1.93773 13.8125 1.93773Z" stroke="black"/>
<path d="M7.18848 3.75H1.625V11H7.18848C7.84273 11 8.375 10.4883 8.375 9.85927V4.89073C8.375 4.26173 7.84273 3.75 7.18848 3.75Z" fill="#696969" fill-opacity="0.24"/>
<path d="M6.98242 3.5H1.625V10.75H6.98242C7.61244 10.75 8.125 10.2383 8.125 9.60927V4.64073C8.125 4.01173 7.61244 3.5 6.98242 3.5Z" fill="#404040"/>
<path d="M6.07837 8.625H5.8772C5.66888 8.625 5.5 8.79388 5.5 9.0022C5.5 9.21051 5.66888 9.37939 5.8772 9.37939H6.07837C6.28668 9.37939 6.45557 9.21051 6.45557 9.0022C6.45557 8.79388 6.28668 8.625 6.07837 8.625Z" fill="#DAD0CB"/>
<path d="M3.05835 7.43066C3.05835 7.63898 3.22723 7.80786 3.43555 7.80786H3.63672C3.84503 7.80786 4.01392 7.63898 4.01392 7.43066C4.01392 7.22235 3.84503 7.05347 3.63672 7.05347H3.43555C3.22723 7.05347 3.05835 7.22235 3.05835 7.43066Z" fill="#DAD0CB"/>
<path d="M2.42969 6.19849H3.0332C3.24152 6.19849 3.4104 6.0296 3.4104 5.82129C3.4104 5.61298 3.24152 5.44409 3.0332 5.44409H2.42969C2.22137 5.44409 2.05249 5.61298 2.05249 5.82129C2.05249 6.0296 2.22137 6.19849 2.42969 6.19849Z" fill="#DAD0CB"/>
<path d="M5.44727 6.19849H6.05078C6.25909 6.19849 6.42798 6.0296 6.42798 5.82129C6.42798 5.61298 6.25909 5.44409 6.05078 5.44409H5.44727C5.23895 5.44409 5.07007 5.61298 5.07007 5.82129C5.07007 6.0296 5.23895 6.19849 5.44727 6.19849Z" fill="#DAD0CB"/>
<path d="M6.05078 7.05347H5.24609C5.03778 7.05347 4.8689 7.22235 4.8689 7.43066C4.8689 7.63898 5.03778 7.80786 5.24609 7.80786H6.05078C6.25909 7.80786 6.42798 7.63898 6.42798 7.43066C6.42798 7.22235 6.25909 7.05347 6.05078 7.05347Z" fill="#DAD0CB"/>
<path d="M1.82617 7.05347H1.625V7.80786H1.82617C2.03449 7.80786 2.20337 7.63898 2.20337 7.43066C2.20337 7.22235 2.03449 7.05347 1.82617 7.05347Z" fill="#DAD0CB"/>
<path d="M4.20728 8.625H1.625C1.625 8.625 1.625 8.79388 1.625 9.0022C1.625 9.21051 1.625 9.37939 1.625 9.37939H4.20728C4.41559 9.37939 4.58447 9.21051 4.58447 9.0022C4.58447 8.79388 4.41559 8.625 4.20728 8.625Z" fill="#3AAAFF"/>
<path d="M3.54166 12.9383C3.6138 12.8968 3.69556 12.875 3.77879 12.875H13.0625C13.3732 12.875 13.625 13.1268 13.625 13.4375V13.4375C13.625 13.7482 13.3732 14 13.0625 14H3.84995C3.71958 14 3.59095 13.97 3.47402 13.9123L3.16175 13.7583C3.06271 13.7095 3 13.6087 3 13.4982V13.4982C3 13.4092 3.04092 13.325 3.11099 13.2701L3.48518 12.9764C3.50307 12.9624 3.52194 12.9497 3.54166 12.9383V12.9383Z" fill="#696969" fill-opacity="0.24"/>
<rect x="3.64006" y="12.875" width="9.72891" height="0.642855" rx="0.321427" fill="#696969" fill-opacity="0.24"/>
<path d="M3.29166 12.6883C3.3638 12.6468 3.44556 12.625 3.52879 12.625H12.8125C13.1232 12.625 13.375 12.8768 13.375 13.1875V13.1875C13.375 13.4982 13.1232 13.75 12.8125 13.75H3.59995C3.46958 13.75 3.34095 13.72 3.22402 13.6623L2.91175 13.5083C2.81271 13.4595 2.75 13.3587 2.75 13.2482V13.2482C2.75 13.1592 2.79092 13.075 2.86099 13.0201L3.23518 12.7264C3.25307 12.7124 3.27194 12.6997 3.29166 12.6883V12.6883Z" fill="#EAEAEA"/>
<rect x="3.39006" y="12.625" width="9.72891" height="0.642855" rx="0.321427" fill="#F7F7F7"/>
<path d="M11.7254 9.875H11.1913C10.2588 9.875 9.5 9.12915 9.5 8.2125V6.2875C9.5 5.37085 10.2588 4.625 11.1913 4.625H11.7254C12.6579 4.625 13.4167 5.37085 13.4167 6.2875V8.2125C13.4167 9.12915 12.6579 9.875 11.7254 9.875Z" fill="#696969" fill-opacity="0.24"/>
<path d="M11.4583 7.075C11.2614 7.075 11.1023 6.9182 11.1023 6.725V6.025C11.1023 5.8318 11.2614 5.675 11.4583 5.675C11.6552 5.675 11.8144 5.8318 11.8144 6.025V6.725C11.8144 6.9182 11.6552 7.075 11.4583 7.075Z" fill="#696969" fill-opacity="0.24"/>
<path d="M11.4583 4.625H11.1913C11.1614 4.625 11.1318 4.6257 11.1023 4.6271C10.2111 4.67295 9.5 5.40025 9.5 6.2875V8.2125C9.5 9.12915 10.2588 9.875 11.1913 9.875H11.4583V7.075C11.2614 7.075 11.1023 6.9182 11.1023 6.725V6.025C11.1023 5.8318 11.2614 5.675 11.4583 5.675V4.625Z" fill="#696969" fill-opacity="0.24"/>
<path d="M11.4583 5.675C11.2614 5.675 11.1023 5.8318 11.1023 6.025V6.725C11.1023 6.9182 11.2614 7.075 11.4583 7.075V5.675Z" fill="#696969" fill-opacity="0.24"/>
<path d="M11.5833 9.625H11.0833C10.2103 9.625 9.5 8.91467 9.5 8.04167V6.20833C9.5 5.33533 10.2103 4.625 11.0833 4.625H11.5833C12.4563 4.625 13.1667 5.33533 13.1667 6.20833V8.04167C13.1667 8.91467 12.4563 9.625 11.5833 9.625Z" fill="#2196F3"/>
<path d="M11.3333 6.95833C11.149 6.95833 11 6.809 11 6.625V5.95833C11 5.77433 11.149 5.625 11.3333 5.625C11.5177 5.625 11.6667 5.77433 11.6667 5.95833V6.625C11.6667 6.809 11.5177 6.95833 11.3333 6.95833Z" fill="white"/>
<path d="M11.3333 4.625H11.0833C11.0553 4.625 11.0277 4.62567 11 4.627C10.1657 4.67067 9.5 5.36333 9.5 6.20833V8.04167C9.5 8.91467 10.2103 9.625 11.0833 9.625H11.3333V6.95833C11.149 6.95833 11 6.809 11 6.625V5.95833C11 5.77433 11.149 5.625 11.3333 5.625V4.625Z" fill="#1D83D4"/>
<path d="M11.3333 5.625C11.149 5.625 11 5.77433 11 5.95833V6.625C11 6.809 11.149 6.95833 11.3333 6.95833V5.625Z" fill="#DEDEDE"/>
<defs>
<radialGradient id="paint0_radial" cx="0" cy="0" r="1" gradientUnits="userSpaceOnUse" gradientTransform="translate(8 14.7502) scale(6.875 0.75)">
<stop/>
<stop offset="1" stop-opacity="0"/>
</radialGradient>
<radialGradient id="paint1_radial" cx="0" cy="0" r="1" gradientUnits="userSpaceOnUse" gradientTransform="translate(12.9712 14.8127) scale(1.77968 0.3125)">
<stop stop-color="#181818"/>
<stop offset="1" stop-color="#181818" stop-opacity="0"/>
</radialGradient>
<radialGradient id="paint2_radial" cx="0" cy="0" r="1" gradientUnits="userSpaceOnUse" gradientTransform="translate(3.02881 14.8127) rotate(180) scale(1.77968 0.3125)">
<stop stop-color="#181818"/>
<stop offset="1" stop-color="#181818" stop-opacity="0"/>
</radialGradient>
<linearGradient id="paint3_linear" x1="8.3759" y1="15.1277" x2="8.3759" y2="14.5002" gradientUnits="userSpaceOnUse">
<stop stop-color="#181818" stop-opacity="0"/>
<stop offset="0.5" stop-color="#181818"/>
<stop offset="1" stop-color="#181818" stop-opacity="0"/>
</linearGradient>
<linearGradient id="paint4_linear" x1="8" y1="2.0937" x2="8" y2="14.6064" gradientUnits="userSpaceOnUse">
<stop stop-color="#FFB017"/>
<stop offset="0.0375031" stop-color="white" stop-opacity="0.235294"/>
<stop offset="0.966673" stop-color="white" stop-opacity="0.156863"/>
<stop offset="1" stop-color="white" stop-opacity="0.392157"/>
</linearGradient>
</defs>
</svg>
