<svg width="32" height="32" viewBox="0 0 32 32" fill="none" xmlns="http://www.w3.org/2000/svg">
<path opacity="0.2" d="M29.75 29.5005C29.7493 29.8982 28.3004 30.2797 25.7218 30.5609C23.1433 30.8422 19.6463 31.0002 16 31.0002C12.3537 31.0002 8.85671 30.8422 6.27816 30.5609C3.69961 30.2797 2.25066 29.8982 2.25 29.5005C2.24967 29.3034 2.60509 29.1084 3.29594 28.9263C3.9868 28.7443 4.99956 28.5789 6.2764 28.4396C7.55324 28.3003 9.06914 28.1898 10.7375 28.1144C12.4059 28.039 14.1941 28.0002 16 28.0002C17.8059 28.0002 19.5941 28.039 21.2625 28.1144C22.9309 28.1898 24.4468 28.3003 25.7236 28.4396C27.0004 28.5789 28.0132 28.7443 28.7041 28.9263C29.3949 29.1084 29.7503 29.3034 29.75 29.5005Z" fill="url(#paint0_radial)"/>
<g opacity="0.4">
<path opacity="0.4" d="M29.5 29.0005H25.9474V30.2505H29.5V29.0005Z" fill="url(#paint1_radial)"/>
<path opacity="0.4" d="M2.5 30.2505H6.05264V29.0005H2.5V30.2505Z" fill="url(#paint2_radial)"/>
<path opacity="0.4" d="M25.9474 29.0005H6.05264V30.2505H25.9474V29.0005Z" fill="url(#paint3_linear)"/>
</g>
<path d="M27.625 4H4.375C3.75368 4 3.25 4.50368 3.25 5.125V28.375C3.25 28.9963 3.75368 29.5 4.375 29.5H27.625C28.2463 29.5 28.75 28.9963 28.75 28.375V5.125C28.75 4.50368 28.2463 4 27.625 4Z" fill="#FFBF44"/>
<path d="M27.625 4.12546H4.375C3.82272 4.12546 3.375 4.57317 3.375 5.12546V28.3755C3.375 28.9277 3.82272 29.3755 4.375 29.3755H27.625C28.1773 29.3755 28.625 28.9277 28.625 28.3755V5.12546C28.625 4.57317 28.1773 4.12546 27.625 4.12546Z" stroke="url(#paint4_linear)" stroke-linecap="round" stroke-linejoin="round"/>
<path opacity="0.25" d="M27.625 3.87546H4.375C3.68464 3.87546 3.125 4.4351 3.125 5.12546V28.3755C3.125 29.0658 3.68464 29.6255 4.375 29.6255H27.625C28.3154 29.6255 28.875 29.0658 28.875 28.3755V5.12546C28.875 4.4351 28.3154 3.87546 27.625 3.87546Z" stroke="black"/>
<path d="M14.377 7.5H3.25V22H14.377C15.6855 22 16.75 20.9765 16.75 19.7185V9.78147C16.75 8.52347 15.6855 7.5 14.377 7.5Z" fill="#696969" fill-opacity="0.24"/>
<path d="M13.9648 7H3.25V21.5H13.9648C15.2249 21.5 16.25 20.4765 16.25 19.2185V9.28147C16.25 8.02347 15.2249 7 13.9648 7Z" fill="#404040"/>
<path d="M12.1567 17.25H11.7544C11.3378 17.25 11 17.5878 11 18.0044C11 18.421 11.3378 18.7588 11.7544 18.7588H12.1567C12.5734 18.7588 12.9111 18.421 12.9111 18.0044C12.9111 17.5878 12.5734 17.25 12.1567 17.25Z" fill="#DAD0CB"/>
<path d="M6.1167 14.8613C6.1167 15.278 6.45447 15.6157 6.87109 15.6157H7.27344C7.69006 15.6157 8.02783 15.278 8.02783 14.8613C8.02783 14.4447 7.69006 14.1069 7.27344 14.1069H6.87109C6.45447 14.1069 6.1167 14.4447 6.1167 14.8613Z" fill="#DAD0CB"/>
<path d="M4.85938 12.397H6.06641C6.48303 12.397 6.8208 12.0592 6.8208 11.6426C6.8208 11.226 6.48303 10.8882 6.06641 10.8882H4.85938C4.44275 10.8882 4.10498 11.226 4.10498 11.6426C4.10498 12.0592 4.44275 12.397 4.85938 12.397Z" fill="#DAD0CB"/>
<path d="M10.8945 12.397H12.1016C12.5182 12.397 12.856 12.0592 12.856 11.6426C12.856 11.226 12.5182 10.8882 12.1016 10.8882H10.8945C10.4779 10.8882 10.1401 11.226 10.1401 11.6426C10.1401 12.0592 10.4779 12.397 10.8945 12.397Z" fill="#DAD0CB"/>
<path d="M12.1016 14.1069H10.4922C10.0756 14.1069 9.73779 14.4447 9.73779 14.8613C9.73779 15.278 10.0756 15.6157 10.4922 15.6157H12.1016C12.5182 15.6157 12.856 15.278 12.856 14.8613C12.856 14.4447 12.5182 14.1069 12.1016 14.1069Z" fill="#DAD0CB"/>
<path d="M3.65234 14.1069H3.25V15.6157H3.65234C4.06897 15.6157 4.40674 15.278 4.40674 14.8613C4.40674 14.4447 4.06897 14.1069 3.65234 14.1069Z" fill="#DAD0CB"/>
<path d="M8.41455 17.25H3.25001C3.25001 17.25 3.25001 17.5878 3.25001 18.0044C3.25001 18.421 3.25 18.7588 3.25 18.7588H8.41455C8.83118 18.7588 9.16895 18.421 9.16895 18.0044C9.16895 17.5878 8.83118 17.25 8.41455 17.25Z" fill="#3AAAFF"/>
<path d="M7.08331 25.8767C7.22759 25.7937 7.39113 25.75 7.55757 25.75H26.125C26.7463 25.75 27.25 26.2537 27.25 26.875V26.875C27.25 27.4963 26.7463 28 26.125 28H7.69991C7.43915 28 7.18189 27.94 6.94803 27.8247L6.3235 27.5167C6.12542 27.419 6 27.2173 6 26.9964V26.9964C6 26.8183 6.08184 26.6501 6.22198 26.5401L6.97036 25.9529C7.00614 25.9248 7.04389 25.8993 7.08331 25.8767V25.8767Z" fill="#696969" fill-opacity="0.24"/>
<rect x="7.28012" y="25.75" width="19.4578" height="1.28571" rx="0.642857" fill="#696969" fill-opacity="0.24"/>
<path d="M6.58331 25.3767C6.72759 25.2937 6.89113 25.25 7.05757 25.25H25.625C26.2463 25.25 26.75 25.7537 26.75 26.375V26.375C26.75 26.9963 26.2463 27.5 25.625 27.5H7.19991C6.93915 27.5 6.68189 27.44 6.44803 27.3247L5.8235 27.0167C5.62542 26.919 5.5 26.7173 5.5 26.4964V26.4964C5.5 26.3183 5.58184 26.1501 5.72198 26.0401L6.47036 25.4529C6.50614 25.4248 6.54389 25.3993 6.58331 25.3767V25.3767Z" fill="#EAEAEA"/>
<rect x="6.78012" y="25.25" width="19.4578" height="1.28571" rx="0.642857" fill="#F7F7F7"/>
<path d="M23.4508 19.75H22.3826C20.5175 19.75 19 18.2583 19 16.425V12.575C19 10.7417 20.5175 9.25 22.3826 9.25H23.4508C25.3158 9.25 26.8333 10.7417 26.8333 12.575V16.425C26.8333 18.2583 25.3158 19.75 23.4508 19.75Z" fill="#696969" fill-opacity="0.24"/>
<path d="M22.9167 14.15C22.5229 14.15 22.2045 13.8364 22.2045 13.45V12.05C22.2045 11.6636 22.5229 11.35 22.9167 11.35C23.3105 11.35 23.6288 11.6636 23.6288 12.05V13.45C23.6288 13.8364 23.3105 14.15 22.9167 14.15Z" fill="#696969" fill-opacity="0.24"/>
<path d="M22.9167 9.25H22.3826C22.3228 9.25 22.2637 9.2514 22.2045 9.2542C20.4221 9.3459 19 10.8005 19 12.575V16.425C19 18.2583 20.5175 19.75 22.3826 19.75H22.9167V14.15C22.5229 14.15 22.2045 13.8364 22.2045 13.45V12.05C22.2045 11.6636 22.5229 11.35 22.9167 11.35V9.25Z" fill="#696969" fill-opacity="0.24"/>
<path d="M22.9167 11.35C22.5229 11.35 22.2045 11.6636 22.2045 12.05V13.45C22.2045 13.8364 22.5229 14.15 22.9167 14.15V11.35Z" fill="#696969" fill-opacity="0.24"/>
<path d="M23.1667 19.25H22.1667C20.4207 19.25 19 17.8293 19 16.0833V12.4167C19 10.6707 20.4207 9.25 22.1667 9.25H23.1667C24.9127 9.25 26.3333 10.6707 26.3333 12.4167V16.0833C26.3333 17.8293 24.9127 19.25 23.1667 19.25Z" fill="#2196F3"/>
<path d="M22.6667 13.9167C22.298 13.9167 22 13.618 22 13.25V11.9167C22 11.5487 22.298 11.25 22.6667 11.25C23.0353 11.25 23.3333 11.5487 23.3333 11.9167V13.25C23.3333 13.618 23.0353 13.9167 22.6667 13.9167Z" fill="white"/>
<path d="M22.6667 9.25H22.1667C22.1107 9.25 22.0553 9.25133 22 9.254C20.3313 9.34133 19 10.7267 19 12.4167V16.0833C19 17.8293 20.4207 19.25 22.1667 19.25H22.6667V13.9167C22.298 13.9167 22 13.618 22 13.25V11.9167C22 11.5487 22.298 11.25 22.6667 11.25V9.25Z" fill="#1D83D4"/>
<path d="M22.6667 11.25C22.298 11.25 22 11.5487 22 11.9167V13.25C22 13.618 22.298 13.9167 22.6667 13.9167V11.25Z" fill="#DEDEDE"/>
<defs>
<radialGradient id="paint0_radial" cx="0" cy="0" r="1" gradientUnits="userSpaceOnUse" gradientTransform="translate(16 29.5005) scale(13.75 1.5)">
<stop/>
<stop offset="1" stop-opacity="0"/>
</radialGradient>
<radialGradient id="paint1_radial" cx="0" cy="0" r="1" gradientUnits="userSpaceOnUse" gradientTransform="translate(25.9424 29.6255) scale(3.55935 0.625)">
<stop stop-color="#181818"/>
<stop offset="1" stop-color="#181818" stop-opacity="0"/>
</radialGradient>
<radialGradient id="paint2_radial" cx="0" cy="0" r="1" gradientUnits="userSpaceOnUse" gradientTransform="translate(6.05762 29.6255) rotate(180) scale(3.55935 0.625)">
<stop stop-color="#181818"/>
<stop offset="1" stop-color="#181818" stop-opacity="0"/>
</radialGradient>
<linearGradient id="paint3_linear" x1="16.7518" y1="30.2554" x2="16.7518" y2="29.0004" gradientUnits="userSpaceOnUse">
<stop stop-color="#181818" stop-opacity="0"/>
<stop offset="0.5" stop-color="#181818"/>
<stop offset="1" stop-color="#181818" stop-opacity="0"/>
</linearGradient>
<linearGradient id="paint4_linear" x1="16" y1="4.18739" x2="16" y2="29.2127" gradientUnits="userSpaceOnUse">
<stop stop-color="#FFB017"/>
<stop offset="0.0375031" stop-color="white" stop-opacity="0.235294"/>
<stop offset="0.966673" stop-color="white" stop-opacity="0.156863"/>
<stop offset="1" stop-color="white" stop-opacity="0.392157"/>
</linearGradient>
</defs>
</svg>
