<?xml version="1.0" encoding="UTF-8" standalone="no"?>
<svg
   xmlns:dc="http://purl.org/dc/elements/1.1/"
   xmlns:cc="http://creativecommons.org/ns#"
   xmlns:rdf="http://www.w3.org/1999/02/22-rdf-syntax-ns#"
   xmlns:svg="http://www.w3.org/2000/svg"
   xmlns="http://www.w3.org/2000/svg"
   xmlns:xlink="http://www.w3.org/1999/xlink"
   xmlns:sodipodi="http://sodipodi.sourceforge.net/DTD/sodipodi-0.dtd"
   xmlns:inkscape="http://www.inkscape.org/namespaces/inkscape"
   inkscape:version="1.0 (4035a4fb49, 2020-05-01)"
   sodipodi:docname="com.github.devalien.workspaces.svg"
   id="svg3049"
   height="128"
   width="128"
   version="1.1">
  <sodipodi:namedview
     showborder="false"
     inkscape:document-rotation="0"
     inkscape:current-layer="svg3049"
     inkscape:window-maximized="1"
     inkscape:window-y="30"
     inkscape:window-x="0"
     inkscape:cy="-67.015545"
     inkscape:cx="-203.32684"
     inkscape:zoom="0.99999999"
     showgrid="true"
     id="namedview48"
     inkscape:window-height="1373"
     inkscape:window-width="2560"
     inkscape:pageshadow="2"
     inkscape:pageopacity="0"
     guidetolerance="10"
     gridtolerance="10"
     objecttolerance="10"
     borderopacity="1"
     bordercolor="#666666"
     pagecolor="#ffffff">
    <inkscape:grid
       visible="false"
       empspacing="4"
       id="grid858"
       type="xygrid" />
    <inkscape:grid
       visible="true"
       spacingy="0.5"
       spacingx="0.5"
       dotted="true"
       empopacity="0.2745098"
       empcolor="#ffef3f"
       opacity="0.2745098"
       color="#ffef3f"
       empspacing="2"
       id="grid860"
       type="xygrid" />
  </sodipodi:namedview>
  <defs
     id="defs3051">
    <linearGradient
       inkscape:collect="always"
       id="linearGradient947">
      <stop
         style="stop-color:#ffffff;stop-opacity:1"
         offset="0"
         id="stop943" />
      <stop
         style="stop-color:#fafafa;stop-opacity:1"
         offset="1"
         id="stop945" />
    </linearGradient>
    <linearGradient
       inkscape:collect="always"
       id="linearGradient950">
      <stop
         style="stop-color:#ffffff;stop-opacity:1;"
         offset="0"
         id="stop946" />
      <stop
         style="stop-color:#ffffff;stop-opacity:0.5"
         offset="1"
         id="stop948" />
    </linearGradient>
    <linearGradient
       id="linearGradient1070"
       inkscape:collect="always">
      <stop
         id="stop1066"
         offset="0"
         style="stop-color:#fafafa;stop-opacity:1" />
      <stop
         id="stop1068"
         offset="1"
         style="stop-color:#d4d4d4;stop-opacity:1" />
    </linearGradient>
    <linearGradient
       id="linearGradient1034"
       inkscape:collect="always">
      <stop
         id="stop1030"
         offset="0"
         style="stop-color:#d4d4d4;stop-opacity:1" />
      <stop
         id="stop1032"
         offset="1"
         style="stop-color:#abacae;stop-opacity:1" />
    </linearGradient>
    <linearGradient
       id="linearGradient946"
       inkscape:collect="always">
      <stop
         id="stop942"
         offset="0"
         style="stop-color:#fafafa;stop-opacity:1" />
      <stop
         id="stop944"
         offset="1"
         style="stop-color:#d4d4d4;stop-opacity:1" />
    </linearGradient>
    <linearGradient
       id="linearGradient884"
       inkscape:collect="always">
      <stop
         id="stop880"
         offset="0"
         style="stop-color:#d4d4d4;stop-opacity:1" />
      <stop
         style="stop-color:#fafafa;stop-opacity:1"
         offset="0.21428572"
         id="stop888" />
      <stop
         id="stop882"
         offset="1"
         style="stop-color:#abacae;stop-opacity:1" />
    </linearGradient>
    <linearGradient
       id="linearGradient897">
      <stop
         offset="0"
         style="stop-color:#8a715e;stop-opacity:1"
         id="stop893" />
      <stop
         offset="1"
         style="stop-color:#715344;stop-opacity:1"
         id="stop895" />
    </linearGradient>
    <linearGradient
       id="linearGradient3924">
      <stop
         offset="0"
         style="stop-color:#ffffff;stop-opacity:1"
         id="stop3926" />
      <stop
         offset="0.06316455"
         style="stop-color:#ffffff;stop-opacity:0.23529412"
         id="stop3928" />
      <stop
         offset="0.95056331"
         style="stop-color:#ffffff;stop-opacity:0.15686275"
         id="stop3930" />
      <stop
         offset="1"
         style="stop-color:#ffffff;stop-opacity:0.39215687"
         id="stop3932" />
    </linearGradient>
    <linearGradient
       id="linearGradient3688-166-749-5">
      <stop
         offset="0"
         style="stop-color:#181818;stop-opacity:1"
         id="stop2883-0" />
      <stop
         offset="1"
         style="stop-color:#181818;stop-opacity:0"
         id="stop2885-5" />
    </linearGradient>
    <linearGradient
       id="linearGradient3688-464-309-8">
      <stop
         offset="0"
         style="stop-color:#181818;stop-opacity:1"
         id="stop2889-9" />
      <stop
         offset="1"
         style="stop-color:#181818;stop-opacity:0"
         id="stop2891-4" />
    </linearGradient>
    <linearGradient
       id="linearGradient3702-501-757-0">
      <stop
         offset="0"
         style="stop-color:#181818;stop-opacity:0"
         id="stop2895-0" />
      <stop
         offset="0.5"
         style="stop-color:#181818;stop-opacity:1"
         id="stop2897-2" />
      <stop
         offset="1"
         style="stop-color:#181818;stop-opacity:0"
         id="stop2899-6" />
    </linearGradient>
    <linearGradient
       id="linearGradient3811">
      <stop
         offset="0"
         style="stop-color:#000000;stop-opacity:1"
         id="stop3813" />
      <stop
         offset="1"
         style="stop-color:#000000;stop-opacity:0"
         id="stop3815" />
    </linearGradient>
    <radialGradient
       r="2.5"
       fy="43.5"
       fx="4.9929786"
       cy="43.5"
       cx="4.9929786"
       gradientTransform="matrix(1.9740983,0,0,1.4,28.210531,-17.402531)"
       gradientUnits="userSpaceOnUse"
       id="radialGradient3946"
       xlink:href="#linearGradient3688-166-749-5" />
    <radialGradient
       r="2.5"
       fy="43.5"
       fx="4.9929786"
       cy="43.5"
       cx="4.9929786"
       gradientTransform="matrix(1.9740983,0,0,1.4,-19.789474,-104.39747)"
       gradientUnits="userSpaceOnUse"
       id="radialGradient3948"
       xlink:href="#linearGradient3688-464-309-8" />
    <linearGradient
       gradientTransform="matrix(1.005291,0,0,1,-0.12698188,-0.00253193)"
       y2="39.999443"
       x2="25.058096"
       y1="47.027729"
       x1="25.058096"
       gradientUnits="userSpaceOnUse"
       id="linearGradient3950"
       xlink:href="#linearGradient3702-501-757-0" />
    <linearGradient
       y2="43"
       x2="23.99999"
       y1="4.999989"
       x1="23.99999"
       gradientTransform="matrix(2.7297298,0,0,2.7297298,-1.5135175,1.488319)"
       gradientUnits="userSpaceOnUse"
       id="linearGradient3965"
       xlink:href="#linearGradient3924" />
    <radialGradient
       r="35.338131"
       fy="93.467628"
       fx="-4.0287771"
       cy="93.467628"
       cx="-4.0287771"
       gradientTransform="matrix(1.5563924,0,0,0.16978827,70.270355,102.13157)"
       gradientUnits="userSpaceOnUse"
       id="radialGradient3976"
       xlink:href="#linearGradient3811" />
    <linearGradient
       gradientUnits="userSpaceOnUse"
       y2="117.80992"
       x2="66.996674"
       y1="15.857451"
       x1="66.996674"
       id="linearGradient891"
       xlink:href="#linearGradient897" />
    <linearGradient
       id="linearGradient5803">
      <stop
         offset="0"
         style="stop-color:#fff5ef;stop-opacity:1"
         id="stop5805" />
      <stop
         offset="1"
         style="stop-color:#fef8dd;stop-opacity:1"
         id="stop5807" />
    </linearGradient>
    <linearGradient
       gradientTransform="matrix(1.832495,0,0,1.8439152,-232.17581,8.558593)"
       gradientUnits="userSpaceOnUse"
       xlink:href="#linearGradient5803"
       id="linearGradient5228-5"
       y2="54.780239"
       x2="167.98311"
       y1="8.50811"
       x1="167.98311" />
    <linearGradient
       gradientUnits="userSpaceOnUse"
       y2="107.5"
       x2="56"
       y1="100.5"
       x1="56"
       id="linearGradient886"
       xlink:href="#linearGradient884"
       inkscape:collect="always" />
    <linearGradient
       x1="18.601307"
       y1="0.85446119"
       x2="18.601307"
       y2="49.956139"
       id="linearGradient3624"
       xlink:href="#linearGradient3600-8"
       gradientUnits="userSpaceOnUse"
       gradientTransform="matrix(0.65617335,0,0,0.56391362,87.63934,39.674285)" />
    <linearGradient
       id="linearGradient3600-8">
      <stop
         id="stop3602-2"
         style="stop-color:#f4f4f4;stop-opacity:1"
         offset="0" />
      <stop
         id="stop3604-5"
         style="stop-color:#dbdbdb;stop-opacity:1"
         offset="1" />
    </linearGradient>
    <linearGradient
       x1="22.227652"
       y1="33.657772"
       x2="-29.922544"
       y2="33.657784"
       id="linearGradient3621"
       xlink:href="#linearGradient4334"
       gradientUnits="userSpaceOnUse"
       gradientTransform="matrix(1.0155223e-7,-0.45626207,0.47872179,2.258382e-7,75.886579,52.199155)" />
    <linearGradient
       id="linearGradient4334">
      <stop
         offset="0"
         style="stop-color:#ffffff;stop-opacity:1"
         id="stop4336" />
      <stop
         offset="0.13647814"
         style="stop-color:#ffffff;stop-opacity:0.23529412"
         id="stop4338" />
      <stop
         offset="0.93085313"
         style="stop-color:#ffffff;stop-opacity:0.15686275"
         id="stop4340" />
      <stop
         offset="1"
         style="stop-color:#ffffff;stop-opacity:0.39215687"
         id="stop4342" />
    </linearGradient>
    <linearGradient
       x1="14"
       y1="2"
       x2="32"
       y2="40"
       id="linearGradient3617"
       xlink:href="#linearGradient3208"
       gradientUnits="userSpaceOnUse"
       gradientTransform="matrix(1.4307233,0,0,0.67711807,60.509303,35.626944)" />
    <linearGradient
       id="linearGradient3208">
      <stop
         id="stop3210"
         style="stop-color:#ffffff;stop-opacity:1"
         offset="0" />
      <stop
         id="stop3212"
         style="stop-color:#ffffff;stop-opacity:0"
         offset="1" />
    </linearGradient>
    <linearGradient
       gradientUnits="userSpaceOnUse"
       y2="78"
       x2="92"
       y1="36"
       x1="92"
       id="linearGradient948"
       xlink:href="#linearGradient946"
       inkscape:collect="always" />
    <linearGradient
       gradientUnits="userSpaceOnUse"
       y2="88"
       x2="40"
       y1="28"
       x1="40"
       id="linearGradient1036"
       xlink:href="#linearGradient1034"
       inkscape:collect="always" />
    <linearGradient
       gradientUnits="userSpaceOnUse"
       y2="82"
       x2="34"
       y1="34"
       x1="34"
       id="linearGradient1072"
       xlink:href="#linearGradient947"
       inkscape:collect="always" />
    <linearGradient
       gradientTransform="translate(-12.5,-34)"
       inkscape:collect="always"
       xlink:href="#linearGradient1070"
       id="linearGradient1072-3"
       x1="34"
       y1="34"
       x2="34"
       y2="42"
       gradientUnits="userSpaceOnUse" />
    <linearGradient
       inkscape:collect="always"
       xlink:href="#linearGradient950"
       id="linearGradient952"
       x1="92"
       y1="42"
       x2="92"
       y2="74.5"
       gradientUnits="userSpaceOnUse" />
  </defs>
  <metadata
     id="metadata3054">
    <rdf:RDF>
      <cc:Work
         rdf:about="">
        <dc:format>image/svg+xml</dc:format>
        <dc:type
           rdf:resource="http://purl.org/dc/dcmitype/StillImage" />
        <dc:title />
      </cc:Work>
    </rdf:RDF>
  </metadata>
  <path
     inkscape:connector-curvature="0"
     d="m 119,118.00128 a 55,6 0 0 1 -109.9999975,0 55,6 0 1 1 109.9999975,0 z"
     id="path3041"
     style="color:#000000;display:inline;overflow:visible;visibility:visible;opacity:0.2;fill:url(#radialGradient3976);fill-opacity:1;fill-rule:nonzero;stroke:none;stroke-width:1;marker:none;enable-background:accumulate" />
  <g
     transform="matrix(2.6999989,0,0,0.55555607,-0.8000075,94.890689)"
     id="g2036"
     style="display:inline">
    <g
       transform="matrix(1.052632,0,0,1.285713,-1.263158,-13.42854)"
       id="g3712"
       style="opacity:0.4">
      <rect
         width="4.9259257"
         height="7"
         x="38.074078"
         y="39.997467"
         id="rect2801"
         style="fill:url(#radialGradient3946);fill-opacity:1;stroke:none;stroke-width:1" />
      <rect
         width="4.9259257"
         height="7"
         x="-9.9259281"
         y="-46.997467"
         transform="scale(-1)"
         id="rect3696"
         style="fill:url(#radialGradient3948);fill-opacity:1;stroke:none;stroke-width:1" />
      <rect
         width="28.148148"
         height="7.0000005"
         x="9.9259281"
         y="39.997467"
         id="rect3700"
         style="fill:url(#linearGradient3950);fill-opacity:1;stroke:none;stroke-width:1" />
    </g>
  </g>
  <rect
     width="103"
     height="103"
     rx="6.0545406"
     ry="6.0545406"
     x="12.499989"
     y="15.501808"
     id="rect5505-21-3"
     style="color:#000000;fill:url(#linearGradient891);fill-opacity:1;fill-rule:nonzero;stroke:none;stroke-width:0.99999994;marker:none;visibility:visible;display:inline;overflow:visible;enable-background:accumulate" />
  <path
     style="color:#000000;font-style:normal;font-variant:normal;font-weight:normal;font-stretch:normal;font-size:medium;line-height:normal;font-family:sans-serif;font-variant-ligatures:normal;font-variant-position:normal;font-variant-caps:normal;font-variant-numeric:normal;font-variant-alternates:normal;font-variant-east-asian:normal;font-feature-settings:normal;font-variation-settings:normal;text-indent:0;text-align:start;text-decoration:none;text-decoration-line:none;text-decoration-style:solid;text-decoration-color:#000000;letter-spacing:normal;word-spacing:normal;text-transform:none;writing-mode:lr-tb;direction:ltr;text-orientation:mixed;dominant-baseline:auto;baseline-shift:baseline;text-anchor:start;white-space:normal;shape-padding:0;shape-margin:0;inline-size:0;clip-rule:nonzero;display:inline;overflow:visible;visibility:visible;opacity:0.15;isolation:auto;mix-blend-mode:normal;color-interpolation:sRGB;color-interpolation-filters:linearRGB;solid-color:#000000;solid-opacity:1;vector-effect:none;fill:#3d211b;fill-opacity:1;fill-rule:nonzero;stroke:#3d211b;stroke-width:2;stroke-linecap:butt;stroke-linejoin:miter;stroke-miterlimit:4;stroke-dasharray:none;stroke-dashoffset:0;stroke-opacity:1;color-rendering:auto;image-rendering:auto;shape-rendering:auto;text-rendering:auto;enable-background:accumulate;stop-color:#000000;stop-opacity:1"
     d="m 27.396484,101 -0.09375,0.041 c -1.75,0.75 -3.502002,1.50039 -4.830078,2.13281 -0.664038,0.31621 -1.221063,0.60142 -1.632812,0.85351 -0.205875,0.12605 -0.373872,0.24029 -0.515625,0.36719 C 20.182466,104.52143 20,104.64583 20,105 c 0,0.35417 0.182466,0.47857 0.324219,0.60547 0.141753,0.1269 0.30975,0.24114 0.515625,0.36719 0.411749,0.25209 0.968774,0.5373 1.632812,0.85351 1.328076,0.63242 3.080078,1.38281 4.830078,2.13281 L 27.396484,109 H 104 c 2.20735,0 4,-1.79265 4,-4 0,-2.20735 -1.79265,-4 -4,-4 z"
     id="path1186"
     sodipodi:nodetypes="ccsssssssccsssc" />
  <path
     sodipodi:nodetypes="ccsssssssccsssc"
     id="path1184"
     d="m 27.396484,101 -0.09375,0.041 c -1.75,0.75 -3.502002,1.50039 -4.830078,2.13281 -0.664038,0.31621 -1.221063,0.60142 -1.632812,0.85351 -0.205875,0.12605 -0.373872,0.24029 -0.515625,0.36719 C 20.182466,104.52143 20,104.64583 20,105 c 0,0.35417 0.182466,0.47857 0.324219,0.60547 0.141753,0.1269 0.30975,0.24114 0.515625,0.36719 0.411749,0.25209 0.968774,0.5373 1.632812,0.85351 1.328076,0.63242 3.080078,1.38281 4.830078,2.13281 L 27.396484,109 H 104 c 2.20735,0 4,-1.79265 4,-4 0,-2.20735 -1.79265,-4 -4,-4 z"
     style="color:#000000;font-style:normal;font-variant:normal;font-weight:normal;font-stretch:normal;font-size:medium;line-height:normal;font-family:sans-serif;font-variant-ligatures:normal;font-variant-position:normal;font-variant-caps:normal;font-variant-numeric:normal;font-variant-alternates:normal;font-variant-east-asian:normal;font-feature-settings:normal;font-variation-settings:normal;text-indent:0;text-align:start;text-decoration:none;text-decoration-line:none;text-decoration-style:solid;text-decoration-color:#000000;letter-spacing:normal;word-spacing:normal;text-transform:none;writing-mode:lr-tb;direction:ltr;text-orientation:mixed;dominant-baseline:auto;baseline-shift:baseline;text-anchor:start;white-space:normal;shape-padding:0;shape-margin:0;inline-size:0;clip-rule:nonzero;display:inline;overflow:visible;visibility:visible;opacity:0.3;isolation:auto;mix-blend-mode:normal;color-interpolation:sRGB;color-interpolation-filters:linearRGB;solid-color:#000000;solid-opacity:1;vector-effect:none;fill:#3d211b;fill-opacity:1;fill-rule:nonzero;stroke:none;stroke-width:1;stroke-linecap:butt;stroke-linejoin:miter;stroke-miterlimit:4;stroke-dasharray:none;stroke-dashoffset:0;stroke-opacity:1;color-rendering:auto;image-rendering:auto;shape-rendering:auto;text-rendering:auto;enable-background:accumulate;stop-color:#000000;stop-opacity:1" />
  <path
     style="color:#000000;font-style:normal;font-variant:normal;font-weight:normal;font-stretch:normal;font-size:medium;line-height:normal;font-family:sans-serif;font-variant-ligatures:normal;font-variant-position:normal;font-variant-caps:normal;font-variant-numeric:normal;font-variant-alternates:normal;font-variant-east-asian:normal;font-feature-settings:normal;font-variation-settings:normal;text-indent:0;text-align:start;text-decoration:none;text-decoration-line:none;text-decoration-style:solid;text-decoration-color:#000000;letter-spacing:normal;word-spacing:normal;text-transform:none;writing-mode:lr-tb;direction:ltr;text-orientation:mixed;dominant-baseline:auto;baseline-shift:baseline;text-anchor:start;white-space:normal;shape-padding:0;shape-margin:0;inline-size:0;clip-rule:nonzero;display:inline;overflow:visible;visibility:visible;opacity:0.15;isolation:auto;mix-blend-mode:normal;color-interpolation:sRGB;color-interpolation-filters:linearRGB;solid-color:#000000;solid-opacity:1;vector-effect:none;fill:#3d211b;fill-opacity:1;fill-rule:nonzero;stroke:#3d211b;stroke-width:2;stroke-linecap:butt;stroke-linejoin:miter;stroke-miterlimit:4;stroke-dasharray:none;stroke-dashoffset:0;stroke-opacity:1;color-rendering:auto;image-rendering:auto;shape-rendering:auto;text-rendering:auto;enable-background:accumulate;stop-color:#000000;stop-opacity:1"
     d="M 13,29 V 29.5 89 h 55 c 2.207351,0 4,-1.792649 4,-4 V 33 c 0,-2.207351 -1.792649,-4 -4,-4 z"
     id="path1161"
     sodipodi:nodetypes="cccssssc" />
  <path
     sodipodi:nodetypes="cccssssc"
     id="path1159"
     d="M 12,29 V 29.5 89 h 56 c 2.207351,0 4,-1.792649 4,-4 V 33 c 0,-2.207351 -1.792649,-4 -4,-4 z"
     style="color:#000000;font-style:normal;font-variant:normal;font-weight:normal;font-stretch:normal;font-size:medium;line-height:normal;font-family:sans-serif;font-variant-ligatures:normal;font-variant-position:normal;font-variant-caps:normal;font-variant-numeric:normal;font-variant-alternates:normal;font-variant-east-asian:normal;font-feature-settings:normal;font-variation-settings:normal;text-indent:0;text-align:start;text-decoration:none;text-decoration-line:none;text-decoration-style:solid;text-decoration-color:#000000;letter-spacing:normal;word-spacing:normal;text-transform:none;writing-mode:lr-tb;direction:ltr;text-orientation:mixed;dominant-baseline:auto;baseline-shift:baseline;text-anchor:start;white-space:normal;shape-padding:0;shape-margin:0;inline-size:0;clip-rule:nonzero;display:inline;overflow:visible;visibility:visible;opacity:0.3;isolation:auto;mix-blend-mode:normal;color-interpolation:sRGB;color-interpolation-filters:linearRGB;solid-color:#000000;solid-opacity:1;vector-effect:none;fill:#3d211b;fill-opacity:1;fill-rule:nonzero;stroke:none;stroke-width:1;stroke-linecap:butt;stroke-linejoin:miter;stroke-miterlimit:4;stroke-dasharray:none;stroke-dashoffset:0;stroke-opacity:1;color-rendering:auto;image-rendering:auto;shape-rendering:auto;text-rendering:auto;enable-background:accumulate;stop-color:#000000;stop-opacity:1" />
  <path
     style="color:#000000;font-style:normal;font-variant:normal;font-weight:normal;font-stretch:normal;font-size:medium;line-height:normal;font-family:sans-serif;font-variant-ligatures:normal;font-variant-position:normal;font-variant-caps:normal;font-variant-numeric:normal;font-variant-alternates:normal;font-variant-east-asian:normal;font-feature-settings:normal;font-variation-settings:normal;text-indent:0;text-align:start;text-decoration:none;text-decoration-line:none;text-decoration-style:solid;text-decoration-color:#000000;letter-spacing:normal;word-spacing:normal;text-transform:none;writing-mode:lr-tb;direction:ltr;text-orientation:mixed;dominant-baseline:auto;baseline-shift:baseline;text-anchor:start;white-space:normal;shape-padding:0;shape-margin:0;inline-size:0;clip-rule:nonzero;display:inline;overflow:visible;visibility:visible;opacity:0.15;isolation:auto;mix-blend-mode:normal;color-interpolation:sRGB;color-interpolation-filters:linearRGB;solid-color:#000000;solid-opacity:1;vector-effect:none;fill:#3d211b;fill-opacity:1;fill-rule:nonzero;stroke:#3d211b;stroke-width:2;stroke-linecap:butt;stroke-linejoin:miter;stroke-miterlimit:4;stroke-dasharray:none;stroke-dashoffset:0;stroke-opacity:1;color-rendering:auto;image-rendering:auto;shape-rendering:auto;text-rendering:auto;enable-background:accumulate;stop-color:#000000;stop-opacity:1"
     d="M 90.5,41 C 84.691649,41 80,45.691649 80,51.5 v 15 C 80,72.308351 84.691649,77 90.5,77 h 3 C 99.308351,77 104,72.308351 104,66.5 v -15 C 104,45.691649 99.308351,41 93.5,41 Z"
     id="path962"
     sodipodi:nodetypes="sssssssss" />
  <path
     sodipodi:nodetypes="sssssssss"
     id="path960"
     d="M 90.5,41 C 84.691649,41 80,45.691649 80,51.5 v 15 C 80,72.308351 84.691649,77 90.5,77 h 3 C 99.308351,77 104,72.308351 104,66.5 v -15 C 104,45.691649 99.308351,41 93.5,41 Z"
     style="color:#000000;font-style:normal;font-variant:normal;font-weight:normal;font-stretch:normal;font-size:medium;line-height:normal;font-family:sans-serif;font-variant-ligatures:normal;font-variant-position:normal;font-variant-caps:normal;font-variant-numeric:normal;font-variant-alternates:normal;font-variant-east-asian:normal;font-feature-settings:normal;font-variation-settings:normal;text-indent:0;text-align:start;text-decoration:none;text-decoration-line:none;text-decoration-style:solid;text-decoration-color:#000000;letter-spacing:normal;word-spacing:normal;text-transform:none;writing-mode:lr-tb;direction:ltr;text-orientation:mixed;dominant-baseline:auto;baseline-shift:baseline;text-anchor:start;white-space:normal;shape-padding:0;shape-margin:0;inline-size:0;clip-rule:nonzero;display:inline;overflow:visible;visibility:visible;opacity:0.3;isolation:auto;mix-blend-mode:normal;color-interpolation:sRGB;color-interpolation-filters:linearRGB;solid-color:#000000;solid-opacity:1;vector-effect:none;fill:#3d211b;fill-opacity:1;fill-rule:nonzero;stroke:none;stroke-width:1;stroke-linecap:butt;stroke-linejoin:miter;stroke-miterlimit:4;stroke-dasharray:none;stroke-dashoffset:0;stroke-opacity:1;color-rendering:auto;image-rendering:auto;shape-rendering:auto;text-rendering:auto;enable-background:accumulate;stop-color:#000000;stop-opacity:1" />
  <rect
     width="101"
     height="101"
     rx="5"
     ry="5"
     x="13.499989"
     y="16.501808"
     id="rect6741-7"
     style="opacity:0.5;fill:none;stroke:url(#linearGradient3965);stroke-width:0.99999994;stroke-linecap:round;stroke-linejoin:round;stroke-miterlimit:4;stroke-opacity:1;stroke-dasharray:none;stroke-dashoffset:0" />
  <rect
     width="103"
     height="103"
     rx="6.0545406"
     ry="6.0545406"
     x="12.499989"
     y="15.501808"
     id="rect5505-21-3-1"
     style="opacity:0.5;color:#000000;fill:none;stroke:#3d211b;stroke-width:1;stroke-linecap:round;stroke-linejoin:round;stroke-miterlimit:4;stroke-opacity:1;stroke-dasharray:none;stroke-dashoffset:0;marker:none;visibility:visible;display:inline;overflow:visible;enable-background:accumulate" />
  <path
     id="path55"
     style="fill:url(#linearGradient886);stroke:none;fill-opacity:1"
     d="M 27.5,100.5 H 104 c 1.939,0 3.5,1.561 3.5,3.5 0,1.939 -1.561,3.5 -3.5,3.5 H 27.5 c -3.5,-1.5 -7,-3 -7,-3.5 0,-0.5 3.5,-2 7,-3.5 z"
     sodipodi:nodetypes="cssscsc" />
  <path
     sodipodi:nodetypes="cc"
     id="path51"
     d="m 27.5,100.5 c 1.687816,2.9051 0.930797,4.98199 0,7"
     style="fill:none;stroke:#abacae;stroke-width:1px;stroke-linecap:butt;stroke-linejoin:miter;stroke-opacity:1;opacity:0.5" />
  <path
     sodipodi:nodetypes="cc"
     id="path53"
     d="m 22.5,102.5 c 1.587653,1.15288 1.055913,2.10168 0,3"
     style="fill:none;stroke:#abacae;stroke-width:1px;stroke-linecap:butt;stroke-linejoin:miter;stroke-opacity:1;opacity:0.5" />
  <path
     sodipodi:nodetypes="cssscsc"
     d="M 27.5,100.5 H 104 c 1.939,0 3.5,1.561 3.5,3.5 0,1.939 -1.561,3.5 -3.5,3.5 H 27.5 c -3.5,-1.5 -7,-3 -7,-3.5 0,-0.5 3.5,-2 7,-3.5 z"
     style="fill:none;stroke:#555761;opacity:0.5"
     id="rect48" />
  <rect
     ry="1"
     rx="1"
     y="101.98658"
     x="30"
     height="2.0134227"
     width="75"
     id="rect890"
     style="opacity:0.5;fill:#ffffff;stroke:none;fill-opacity:1" />
  <path
     sodipodi:nodetypes="csssscc"
     d="M 12.5,28.5 H 68 c 1.939,0 3.5,1.561 3.5,3.5 v 52 c 0,1.939 -1.561,3.5 -3.5,3.5 H 12.5 c 0,-7.5 0,-54.5 0,-59 z"
     style="opacity:1;fill:url(#linearGradient1036);fill-opacity:1;stroke:none"
     id="rect892" />
  <path
     id="rect939"
     style="opacity:0.15;stroke:#ffffff;stroke-width:1;stroke-linejoin:round;stroke-opacity:1;stop-color:#000000;fill:none"
     d="M 13.5,29.5 H 68 c 1.385,0 2.5,1.115 2.5,2.5 v 52 c 0,1.385 -1.115,2.5 -2.5,2.5 H 13.5 c 0,-6 0.0755,-54.5 0,-57 z"
     sodipodi:nodetypes="csssscc" />
  <path
     sodipodi:nodetypes="ccsssscssssssssssssssssssssssssssssssssssssssssssssssssssssssssssssssssssssssssssssssssssssssssssccsssscssssssssssssssssssssssssssssssssssssssssssssssssssssssssssssssssssssssssssssssssssssssssssccsssscsssssssssssssssssssssssssss"
     id="path1178"
     style="opacity:0.15;fill:none;fill-opacity:1;stroke:#555761;stroke-width:2"
     d="m 13,35 v 8 h 4 c 0.554,0 1,-0.446 1,-1 v -6 c 0,-0.554 -0.446,-1 -1,-1 z m 8,0 c -0.554,0 -1,0.446 -1,1 v 6 c 0,0.554 0.446,1 1,1 h 6 c 0.554,0 1,-0.446 1,-1 v -6 c 0,-0.554 -0.446,-1 -1,-1 z m 10,0 c -0.554,0 -1,0.446 -1,1 v 6 c 0,0.554 0.446,1 1,1 h 6 c 0.554,0 1,-0.446 1,-1 v -6 c 0,-0.554 -0.446,-1 -1,-1 z m 10,0 c -0.554,0 -1,0.446 -1,1 v 6 c 0,0.554 0.446,1 1,1 h 6 c 0.554,0 1,-0.446 1,-1 v -6 c 0,-0.554 -0.446,-1 -1,-1 z m 10,0 c -0.554,0 -1,0.446 -1,1 v 6 c 0,0.554 0.446,1 1,1 h 6 c 0.554,0 1,-0.446 1,-1 v -6 c 0,-0.554 -0.446,-1 -1,-1 z m 10,0 c -0.554,0 -1,0.446 -1,1 v 6 c 0,0.554 0.446,1 1,1 h 6 c 0.554,0 1,-0.446 1,-1 v -6 c 0,-0.554 -0.446,-1 -1,-1 z M 15,45 c -0.554,0 -1,0.446 -1,1 v 6 c 0,0.554 0.446,1 1,1 h 6 c 0.554,0 1,-0.446 1,-1 v -6 c 0,-0.554 -0.446,-1 -1,-1 z m 10,0 c -0.554,0 -1,0.446 -1,1 v 6 c 0,0.554 0.446,1 1,1 h 6 c 0.554,0 1,-0.446 1,-1 v -6 c 0,-0.554 -0.446,-1 -1,-1 z m 10,0 c -0.554,0 -1,0.446 -1,1 v 6 c 0,0.554 0.446,1 1,1 h 6 c 0.554,0 1,-0.446 1,-1 v -6 c 0,-0.554 -0.446,-1 -1,-1 z m 10,0 c -0.554,0 -1,0.446 -1,1 v 6 c 0,0.554 0.446,1 1,1 h 6 c 0.554,0 1,-0.446 1,-1 v -6 c 0,-0.554 -0.446,-1 -1,-1 z m 10,0 c -0.554,0 -1,0.446 -1,1 v 6 c 0,0.554 0.446,1 1,1 h 6 c 0.554,0 1,-0.446 1,-1 v -6 c 0,-0.554 -0.446,-1 -1,-1 z M 13,55 v 8 h 4 c 0.554,0 1,-0.446 1,-1 v -6 c 0,-0.554 -0.446,-1 -1,-1 z m 8,0 c -0.554,0 -1,0.446 -1,1 v 6 c 0,0.554 0.446,1 1,1 h 6 c 0.554,0 1,-0.446 1,-1 v -6 c 0,-0.554 -0.446,-1 -1,-1 z m 10,0 c -0.554,0 -1,0.446 -1,1 v 6 c 0,0.554 0.446,1 1,1 h 6 c 0.554,0 1,-0.446 1,-1 v -6 c 0,-0.554 -0.446,-1 -1,-1 z m 10,0 c -0.554,0 -1,0.446 -1,1 v 6 c 0,0.554 0.446,1 1,1 h 6 c 0.554,0 1,-0.446 1,-1 v -6 c 0,-0.554 -0.446,-1 -1,-1 z m 10,0 c -0.554,0 -1,0.446 -1,1 v 6 c 0,0.554 0.446,1 1,1 h 6 c 0.554,0 1,-0.446 1,-1 v -6 c 0,-0.554 -0.446,-1 -1,-1 z m 10,0 c -0.554,0 -1,0.446 -1,1 v 6 c 0,0.554 0.446,1 1,1 h 6 c 0.554,0 1,-0.446 1,-1 v -6 c 0,-0.554 -0.446,-1 -1,-1 z M 14.987327,65 c -0.554,0 -1,0.446 -1,1 v 6 c 0,0.554 0.446,1 1,1 h 6 c 0.554,0 1,-0.446 1,-1 v -6 c 0,-0.554 -0.446,-1 -1,-1 z m 10,0 c -0.554,0 -1,0.446 -1,1 v 6 c 0,0.554 0.446,1 1,1 h 6 c 0.554,0 1,-0.446 1,-1 v -6 c 0,-0.554 -0.446,-1 -1,-1 z m 10,0 c -0.554,0 -1,0.446 -1,1 v 6 c 0,0.554 0.446,1 1,1 h 6 c 0.554,0 1,-0.446 1,-1 v -6 c 0,-0.554 -0.446,-1 -1,-1 z m 10,0 c -0.554,0 -1,0.446 -1,1 v 6 c 0,0.554 0.446,1 1,1 h 6 c 0.554,0 1,-0.446 1,-1 v -6 c 0,-0.554 -0.446,-1 -1,-1 z m 10,0 c -0.554,0 -1,0.446 -1,1 v 6 c 0,0.554 0.446,1 1,1 h 6 c 0.554,0 1,-0.446 1,-1 v -6 c 0,-0.554 -0.446,-1 -1,-1 z M 13,75 v 8 h 24 c 0.554,0 1,-0.446 1,-1 v -6 c 0,-0.554 -0.446,-1 -1,-1 z m 28,0 c -0.554,0 -1,0.446 -1,1 v 6 c 0,0.554 0.446,1 1,1 h 6 c 0.554,0 1,-0.446 1,-1 v -6 c 0,-0.554 -0.446,-1 -1,-1 z m 10,0 c -0.554,0 -1,0.446 -1,1 v 6 c 0,0.554 0.446,1 1,1 h 6 c 0.554,0 1,-0.446 1,-1 v -6 c 0,-0.554 -0.446,-1 -1,-1 z m 10,0 c -0.554,0 -1,0.446 -1,1 v 6 c 0,0.554 0.446,1 1,1 h 6 c 0.554,0 1,-0.446 1,-1 v -6 c 0,-0.554 -0.446,-1 -1,-1 z" />
  <rect
     ry="10"
     rx="10"
     y="40.5"
     x="80.5"
     height="35"
     width="23"
     id="rect934"
     style="opacity:1;fill:url(#linearGradient948);fill-opacity:1;stroke:none" />
  <path
     sodipodi:nodetypes="cssscc"
     d="m 93,41 v 16 c 0,0.554 -0.446,1 -1,1 -0.554,0 -1,-0.446 -1,-1 V 41 c 1,0 1,0 2,0 z"
     style="opacity:0.7;fill:#555761;fill-opacity:1;stroke:none"
     id="rect940" />
  <rect
     ry="1"
     rx="0.98515689"
     y="46"
     x="91"
     height="6"
     width="2"
     id="rect938"
     style="opacity:1;fill:#ffffff;fill-opacity:1;stroke:none" />
  <rect
     style="opacity:0.5;fill:none;fill-opacity:1;stroke:#555761"
     id="rect950"
     width="3"
     height="7"
     x="90.5"
     y="45.5"
     rx="1.5"
     ry="1.5" />
  <rect
     style="opacity:0.5;fill:none;fill-opacity:1;stroke:#555761"
     id="rect952"
     width="23"
     height="35"
     x="80.5"
     y="40.5"
     rx="10"
     ry="10" />
  <path
     sodipodi:nodetypes="ccsssscssssssssssssssssssssssssssssssssssssssssssssssssssssssssssssssssssssssssssssssssssssssssssccsssscssssssssssssssssssssssssssssssssssssssssssssssssssssssssssssssssssssssssssssssssssssssssssccsssscsssssssssssssssssssssssssss"
     d="m 12.5,35 v 8 H 17 c 0.554,0 1,-0.446 1,-1 v -6 c 0,-0.554 -0.446,-1 -1,-1 z m 8.5,0 c -0.554,0 -1,0.446 -1,1 v 6 c 0,0.554 0.446,1 1,1 h 6 c 0.554,0 1,-0.446 1,-1 v -6 c 0,-0.554 -0.446,-1 -1,-1 z m 10,0 c -0.554,0 -1,0.446 -1,1 v 6 c 0,0.554 0.446,1 1,1 h 6 c 0.554,0 1,-0.446 1,-1 v -6 c 0,-0.554 -0.446,-1 -1,-1 z m 10,0 c -0.554,0 -1,0.446 -1,1 v 6 c 0,0.554 0.446,1 1,1 h 6 c 0.554,0 1,-0.446 1,-1 v -6 c 0,-0.554 -0.446,-1 -1,-1 z m 10,0 c -0.554,0 -1,0.446 -1,1 v 6 c 0,0.554 0.446,1 1,1 h 6 c 0.554,0 1,-0.446 1,-1 v -6 c 0,-0.554 -0.446,-1 -1,-1 z m 10,0 c -0.554,0 -1,0.446 -1,1 v 6 c 0,0.554 0.446,1 1,1 h 6 c 0.554,0 1,-0.446 1,-1 v -6 c 0,-0.554 -0.446,-1 -1,-1 z M 15,45 c -0.554,0 -1,0.446 -1,1 v 6 c 0,0.554 0.446,1 1,1 h 6 c 0.554,0 1,-0.446 1,-1 v -6 c 0,-0.554 -0.446,-1 -1,-1 z m 10,0 c -0.554,0 -1,0.446 -1,1 v 6 c 0,0.554 0.446,1 1,1 h 6 c 0.554,0 1,-0.446 1,-1 v -6 c 0,-0.554 -0.446,-1 -1,-1 z m 10,0 c -0.554,0 -1,0.446 -1,1 v 6 c 0,0.554 0.446,1 1,1 h 6 c 0.554,0 1,-0.446 1,-1 v -6 c 0,-0.554 -0.446,-1 -1,-1 z m 10,0 c -0.554,0 -1,0.446 -1,1 v 6 c 0,0.554 0.446,1 1,1 h 6 c 0.554,0 1,-0.446 1,-1 v -6 c 0,-0.554 -0.446,-1 -1,-1 z m 10,0 c -0.554,0 -1,0.446 -1,1 v 6 c 0,0.554 0.446,1 1,1 h 6 c 0.554,0 1,-0.446 1,-1 v -6 c 0,-0.554 -0.446,-1 -1,-1 z M 12.5,55 v 8 H 17 c 0.554,0 1,-0.446 1,-1 v -6 c 0,-0.554 -0.446,-1 -1,-1 z m 8.5,0 c -0.554,0 -1,0.446 -1,1 v 6 c 0,0.554 0.446,1 1,1 h 6 c 0.554,0 1,-0.446 1,-1 v -6 c 0,-0.554 -0.446,-1 -1,-1 z m 10,0 c -0.554,0 -1,0.446 -1,1 v 6 c 0,0.554 0.446,1 1,1 h 6 c 0.554,0 1,-0.446 1,-1 v -6 c 0,-0.554 -0.446,-1 -1,-1 z m 10,0 c -0.554,0 -1,0.446 -1,1 v 6 c 0,0.554 0.446,1 1,1 h 6 c 0.554,0 1,-0.446 1,-1 v -6 c 0,-0.554 -0.446,-1 -1,-1 z m 10,0 c -0.554,0 -1,0.446 -1,1 v 6 c 0,0.554 0.446,1 1,1 h 6 c 0.554,0 1,-0.446 1,-1 v -6 c 0,-0.554 -0.446,-1 -1,-1 z m 10,0 c -0.554,0 -1,0.446 -1,1 v 6 c 0,0.554 0.446,1 1,1 h 6 c 0.554,0 1,-0.446 1,-1 v -6 c 0,-0.554 -0.446,-1 -1,-1 z M 15,65 c -0.554,0 -1,0.446 -1,1 v 6 c 0,0.554 0.446,1 1,1 h 6 c 0.554,0 1,-0.446 1,-1 v -6 c 0,-0.554 -0.446,-1 -1,-1 z m 10,0 c -0.554,0 -1,0.446 -1,1 v 6 c 0,0.554 0.446,1 1,1 h 6 c 0.554,0 1,-0.446 1,-1 v -6 c 0,-0.554 -0.446,-1 -1,-1 z m 10,0 c -0.554,0 -1,0.446 -1,1 v 6 c 0,0.554 0.446,1 1,1 h 6 c 0.554,0 1,-0.446 1,-1 v -6 c 0,-0.554 -0.446,-1 -1,-1 z m 10,0 c -0.554,0 -1,0.446 -1,1 v 6 c 0,0.554 0.446,1 1,1 h 6 c 0.554,0 1,-0.446 1,-1 v -6 c 0,-0.554 -0.446,-1 -1,-1 z m 10,0 c -0.554,0 -1,0.446 -1,1 v 6 c 0,0.554 0.446,1 1,1 h 6 c 0.554,0 1,-0.446 1,-1 v -6 c 0,-0.554 -0.446,-1 -1,-1 z M 12.5,75 v 8 H 37 c 0.554,0 1,-0.446 1,-1 v -6 c 0,-0.554 -0.446,-1 -1,-1 z M 41,75 c -0.554,0 -1,0.446 -1,1 v 6 c 0,0.554 0.446,1 1,1 h 6 c 0.554,0 1,-0.446 1,-1 v -6 c 0,-0.554 -0.446,-1 -1,-1 z m 10,0 c -0.554,0 -1,0.446 -1,1 v 6 c 0,0.554 0.446,1 1,1 h 6 c 0.554,0 1,-0.446 1,-1 v -6 c 0,-0.554 -0.446,-1 -1,-1 z m 10,0 c -0.554,0 -1,0.446 -1,1 v 6 c 0,0.554 0.446,1 1,1 h 6 c 0.554,0 1,-0.446 1,-1 v -6 c 0,-0.554 -0.446,-1 -1,-1 z"
     style="opacity:0.3;fill:#555761;fill-opacity:1;stroke:none;stroke-width:2"
     id="path1140" />
  <path
     d="M 12.5 34 L 12.5 42 L 17 42 C 17.554 42 18 41.554 18 41 L 18 35 C 18 34.446 17.554 34 17 34 L 12.5 34 z M 21 34 C 20.446 34 20 34.446 20 35 L 20 41 C 20 41.554 20.446 42 21 42 L 27 42 C 27.554 42 28 41.554 28 41 L 28 35 C 28 34.446 27.554 34 27 34 L 21 34 z M 31 34 C 30.446 34 30 34.446 30 35 L 30 41 C 30 41.554 30.446 42 31 42 L 37 42 C 37.554 42 38 41.554 38 41 L 38 35 C 38 34.446 37.554 34 37 34 L 31 34 z M 41 34 C 40.446 34 40 34.446 40 35 L 40 41 C 40 41.554 40.446 42 41 42 L 47 42 C 47.554 42 48 41.554 48 41 L 48 35 C 48 34.446 47.554 34 47 34 L 41 34 z M 51 34 C 50.446 34 50 34.446 50 35 L 50 41 C 50 41.554 50.446 42 51 42 L 57 42 C 57.554 42 58 41.554 58 41 L 58 35 C 58 34.446 57.554 34 57 34 L 51 34 z M 61 34 C 60.446 34 60 34.446 60 35 L 60 41 C 60 41.554 60.446 42 61 42 L 67 42 C 67.554 42 68 41.554 68 41 L 68 35 C 68 34.446 67.554 34 67 34 L 61 34 z M 15 44 C 14.446 44 14 44.446 14 45 L 14 51 C 14 51.554 14.446 52 15 52 L 21 52 C 21.554 52 22 51.554 22 51 L 22 45 C 22 44.446 21.554 44 21 44 L 15 44 z M 25 44 C 24.446 44 24 44.446 24 45 L 24 51 C 24 51.554 24.446 52 25 52 L 31 52 C 31.554 52 32 51.554 32 51 L 32 45 C 32 44.446 31.554 44 31 44 L 25 44 z M 35 44 C 34.446 44 34 44.446 34 45 L 34 51 C 34 51.554 34.446 52 35 52 L 41 52 C 41.554 52 42 51.554 42 51 L 42 45 C 42 44.446 41.554 44 41 44 L 35 44 z M 45 44 C 44.446 44 44 44.446 44 45 L 44 51 C 44 51.554 44.446 52 45 52 L 51 52 C 51.554 52 52 51.554 52 51 L 52 45 C 52 44.446 51.554 44 51 44 L 45 44 z M 55 44 C 54.446 44 54 44.446 54 45 L 54 51 C 54 51.554 54.446 52 55 52 L 61 52 C 61.554 52 62 51.554 62 51 L 62 45 C 62 44.446 61.554 44 61 44 L 55 44 z M 12.5 54 L 12.5 62 L 17 62 C 17.554 62 18 61.554 18 61 L 18 55 C 18 54.446 17.554 54 17 54 L 12.5 54 z M 21 54 C 20.446 54 20 54.446 20 55 L 20 61 C 20 61.554 20.446 62 21 62 L 27 62 C 27.554 62 28 61.554 28 61 L 28 55 C 28 54.446 27.554 54 27 54 L 21 54 z M 31 54 C 30.446 54 30 54.446 30 55 L 30 61 C 30 61.554 30.446 62 31 62 L 37 62 C 37.554 62 38 61.554 38 61 L 38 55 C 38 54.446 37.554 54 37 54 L 31 54 z M 41 54 C 40.446 54 40 54.446 40 55 L 40 61 C 40 61.554 40.446 62 41 62 L 47 62 C 47.554 62 48 61.554 48 61 L 48 55 C 48 54.446 47.554 54 47 54 L 41 54 z M 51 54 C 50.446 54 50 54.446 50 55 L 50 61 C 50 61.554 50.446 62 51 62 L 57 62 C 57.554 62 58 61.554 58 61 L 58 55 C 58 54.446 57.554 54 57 54 L 51 54 z M 61 54 C 60.446 54 60 54.446 60 55 L 60 61 C 60 61.554 60.446 62 61 62 L 67 62 C 67.554 62 68 61.554 68 61 L 68 55 C 68 54.446 67.554 54 67 54 L 61 54 z M 15 64 C 14.446 64 14 64.446 14 65 L 14 71 C 14 71.554 14.446 72 15 72 L 21 72 C 21.554 72 22 71.554 22 71 L 22 65 C 22 64.446 21.554 64 21 64 L 15 64 z M 25 64 C 24.446 64 24 64.446 24 65 L 24 71 C 24 71.554 24.446 72 25 72 L 31 72 C 31.554 72 32 71.554 32 71 L 32 65 C 32 64.446 31.554 64 31 64 L 25 64 z M 35 64 C 34.446 64 34 64.446 34 65 L 34 71 C 34 71.554 34.446 72 35 72 L 41 72 C 41.554 72 42 71.554 42 71 L 42 65 C 42 64.446 41.554 64 41 64 L 35 64 z M 45 64 C 44.446 64 44 64.446 44 65 L 44 71 C 44 71.554 44.446 72 45 72 L 51 72 C 51.554 72 52 71.554 52 71 L 52 65 C 52 64.446 51.554 64 51 64 L 45 64 z M 55 64 C 54.446 64 54 64.446 54 65 L 54 71 C 54 71.554 54.446 72 55 72 L 61 72 C 61.554 72 62 71.554 62 71 L 62 65 C 62 64.446 61.554 64 61 64 L 55 64 z M 12.5 74 L 12.5 82 L 37 82 C 37.554 82 38 81.554 38 81 L 38 75 C 38 74.446 37.554 74 37 74 L 12.5 74 z M 41 74 C 40.446 74 40 74.446 40 75 L 40 81 C 40 81.554 40.446 82 41 82 L 47 82 C 47.554 82 48 81.554 48 81 L 48 75 C 48 74.446 47.554 74 47 74 L 41 74 z M 51 74 C 50.446 74 50 74.446 50 75 L 50 81 C 50 81.554 50.446 82 51 82 L 57 82 C 57.554 82 58 81.554 58 81 L 58 75 C 58 74.446 57.554 74 57 74 L 51 74 z M 61 74 C 60.446 74 60 74.446 60 75 L 60 81 C 60 81.554 60.446 82 61 82 L 67 82 C 67.554 82 68 81.554 68 81 L 68 75 C 68 74.446 67.554 74 67 74 L 61 74 z "
     style="opacity:1;fill:url(#linearGradient1072);fill-opacity:1;stroke:none;stroke-width:2"
     id="rect967" />
  <path
     id="path1028"
     style="opacity:0.5;fill:none;fill-opacity:1;stroke:#0e141f"
     d="M 12.5,28.5 H 68 c 1.939,0 3.5,1.561 3.5,3.5 v 52 c 0,1.939 -1.561,3.5 -3.5,3.5 H 12.5 c 0,-7.5 0,-54.5 0,-59 z"
     sodipodi:nodetypes="csssscc" />
  <rect
     ry="9"
     rx="9"
     y="41.5"
     x="81.5"
     height="33"
     width="21"
     id="rect941"
     style="opacity:0.3;fill:none;fill-opacity:1;stroke:url(#linearGradient952);stroke-opacity:1" />
</svg>
