<svg width="64" height="64" viewBox="0 0 64 64" fill="none" xmlns="http://www.w3.org/2000/svg">
<path opacity="0.2" d="M59.5 59.0009C59.4987 59.7965 56.6008 60.5594 51.4437 61.1219C46.2866 61.6844 39.2926 62.0004 32 62.0004C24.7074 62.0004 17.7134 61.6844 12.5563 61.1219C7.39921 60.5594 4.50132 59.7965 4.5 59.0009C4.49935 58.6069 5.21017 58.2167 6.59189 57.8527C7.9736 57.4887 9.99913 57.1579 12.5528 56.8792C15.1065 56.6006 18.1383 56.3796 21.4751 56.2288C24.8118 56.078 28.3882 56.0004 32 56.0004C35.6118 56.0004 39.1882 56.078 42.5249 56.2288C45.8617 56.3796 48.8935 56.6006 51.4472 56.8792C54.0009 57.1579 56.0264 57.4887 57.4081 57.8527C58.7898 58.2167 59.5007 58.6069 59.5 59.0009Z" fill="url(#paint0_radial)"/>
<g opacity="0.4">
<path opacity="0.4" d="M59 58.0009H51.8947V60.5009H59V58.0009Z" fill="url(#paint1_radial)"/>
<path opacity="0.4" d="M5.00001 60.5009H12.1053V58.0009H5.00001V60.5009Z" fill="url(#paint2_radial)"/>
<path opacity="0.4" d="M51.8947 58.0009H12.1053V60.5009H51.8947V58.0009Z" fill="url(#paint3_linear)"/>
</g>
<path d="M55.25 8H8.75C7.50736 8 6.5 9.00736 6.5 10.25V56.75C6.5 57.9926 7.50736 59 8.75 59H55.25C56.4926 59 57.5 57.9926 57.5 56.75V10.25C57.5 9.00736 56.4926 8 55.25 8Z" fill="#FFBF44"/>
<path d="M55.25 8.25092H8.75C7.64543 8.25092 6.75 9.14635 6.75 10.2509V56.7509C6.75 57.8555 7.64543 58.7509 8.75 58.7509H55.25C56.3546 58.7509 57.25 57.8555 57.25 56.7509V10.2509C57.25 9.14635 56.3546 8.25092 55.25 8.25092Z" stroke="url(#paint4_linear)" stroke-linecap="round" stroke-linejoin="round"/>
<path opacity="0.25" d="M55.25 7.75092H8.75C7.36929 7.75092 6.25 8.8702 6.25 10.2509V56.7509C6.25 58.1316 7.36929 59.2509 8.75 59.2509H55.25C56.6307 59.2509 57.75 58.1316 57.75 56.7509V10.2509C57.75 8.8702 56.6307 7.75092 55.25 7.75092Z" stroke="black"/>
<path d="M28.7539 15H6.5V44H28.7539C31.3709 44 33.5 41.9531 33.5 39.4371V19.5629C33.5 17.0469 31.3709 15 28.7539 15Z" fill="#696969" fill-opacity="0.24"/>
<path d="M27.9297 14H6.5V43H27.9297C30.4498 43 32.5 40.9531 32.5 38.4371V18.5629C32.5 16.0469 30.4498 14 27.9297 14Z" fill="#404040"/>
<path d="M24.3135 34.5H23.5088C22.6755 34.5 22 35.1755 22 36.0088C22 36.842 22.6755 37.5176 23.5088 37.5176H24.3135C25.1467 37.5176 25.8223 36.842 25.8223 36.0088C25.8223 35.1755 25.1467 34.5 24.3135 34.5Z" fill="#DAD0CB"/>
<path d="M12.2334 29.7227C12.2334 30.5559 12.9089 31.2314 13.7422 31.2314H14.5469C15.3801 31.2314 16.0557 30.5559 16.0557 29.7227C16.0557 28.8894 15.3801 28.2139 14.5469 28.2139H13.7422C12.9089 28.2139 12.2334 28.8894 12.2334 29.7227Z" fill="#DAD0CB"/>
<path d="M9.71875 24.7939H12.1328C12.9661 24.7939 13.6416 24.1184 13.6416 23.2852C13.6416 22.4519 12.9661 21.7764 12.1328 21.7764H9.71875C8.8855 21.7764 8.20996 22.4519 8.20996 23.2852C8.20996 24.1184 8.8855 24.7939 9.71875 24.7939Z" fill="#DAD0CB"/>
<path d="M21.7891 24.7939H24.2031C25.0364 24.7939 25.7119 24.1184 25.7119 23.2852C25.7119 22.4519 25.0364 21.7764 24.2031 21.7764H21.7891C20.9558 21.7764 20.2803 22.4519 20.2803 23.2852C20.2803 24.1184 20.9558 24.7939 21.7891 24.7939Z" fill="#DAD0CB"/>
<path d="M24.2031 28.2139H20.9844C20.1511 28.2139 19.4756 28.8894 19.4756 29.7227C19.4756 30.5559 20.1511 31.2314 20.9844 31.2314H24.2031C25.0364 31.2314 25.7119 30.5559 25.7119 29.7227C25.7119 28.8894 25.0364 28.2139 24.2031 28.2139Z" fill="#DAD0CB"/>
<path d="M7.30469 28.2139H6.5V31.2314H7.30469C8.13794 31.2314 8.81348 30.5559 8.81348 29.7227C8.81348 28.8894 8.13794 28.2139 7.30469 28.2139Z" fill="#DAD0CB"/>
<path d="M16.8291 34.5H6.50001C6.50001 34.5 6.50001 35.1755 6.50001 36.0088C6.50001 36.842 6.5 37.5176 6.5 37.5176H16.8291C17.6624 37.5176 18.3379 36.842 18.3379 36.0088C18.3379 35.1755 17.6624 34.5 16.8291 34.5Z" fill="#3AAAFF"/>
<path d="M14.1666 51.7533C14.4552 51.5873 14.7823 51.5 15.1151 51.5H52.25C53.4926 51.5 54.5 52.5074 54.5 53.75V53.75C54.5 54.9926 53.4926 56 52.25 56H15.3998C14.8783 56 14.3638 55.88 13.8961 55.6494L12.647 55.0334C12.2508 54.838 12 54.4346 12 53.9929V53.9929C12 53.6366 12.1637 53.3001 12.444 53.0802L13.9407 51.9058C14.0123 51.8496 14.0878 51.7987 14.1666 51.7533V51.7533Z" fill="#696969" fill-opacity="0.24"/>
<rect x="14.5602" y="51.5" width="38.9157" height="2.57143" rx="1.28571" fill="#696969" fill-opacity="0.24"/>
<path d="M13.1666 50.7533C13.4552 50.5873 13.7823 50.5 14.1151 50.5H51.25C52.4926 50.5 53.5 51.5074 53.5 52.75V52.75C53.5 53.9926 52.4926 55 51.25 55H14.3998C13.8783 55 13.3638 54.88 12.8961 54.6494L11.647 54.0334C11.2508 53.838 11 53.4346 11 52.9929V52.9929C11 52.6366 11.1637 52.3001 11.444 52.0802L12.9407 50.9058C13.0123 50.8496 13.0878 50.7987 13.1666 50.7533V50.7533Z" fill="#EAEAEA"/>
<rect x="13.5602" y="50.5" width="38.9157" height="2.57143" rx="1.28571" fill="#F7F7F7"/>
<path d="M46.9015 39.5H44.7652C41.0351 39.5 38 36.5166 38 32.85V25.15C38 21.4834 41.0351 18.5 44.7652 18.5H46.9015C50.6316 18.5 53.6667 21.4834 53.6667 25.15V32.85C53.6667 36.5166 50.6316 39.5 46.9015 39.5Z" fill="#696969" fill-opacity="0.24"/>
<path d="M45.8333 28.3C45.0457 28.3 44.4091 27.6728 44.4091 26.9V24.1C44.4091 23.3272 45.0457 22.7 45.8333 22.7C46.6209 22.7 47.2576 23.3272 47.2576 24.1V26.9C47.2576 27.6728 46.6209 28.3 45.8333 28.3Z" fill="#696969" fill-opacity="0.24"/>
<path d="M45.8333 18.5H44.7652C44.6455 18.5 44.5273 18.5028 44.4091 18.5084C40.8442 18.6918 38 21.601 38 25.15V32.85C38 36.5166 41.0351 39.5 44.7652 39.5H45.8333V28.3C45.0457 28.3 44.4091 27.6728 44.4091 26.9V24.1C44.4091 23.3272 45.0457 22.7 45.8333 22.7V18.5Z" fill="#696969" fill-opacity="0.24"/>
<path d="M45.8333 22.7C45.0457 22.7 44.4091 23.3272 44.4091 24.1V26.9C44.4091 27.6728 45.0457 28.3 45.8333 28.3V22.7Z" fill="#696969" fill-opacity="0.24"/>
<path d="M46.3333 38.5H44.3333C40.8413 38.5 38 35.6587 38 32.1667V24.8333C38 21.3413 40.8413 18.5 44.3333 18.5H46.3333C49.8253 18.5 52.6667 21.3413 52.6667 24.8333V32.1667C52.6667 35.6587 49.8253 38.5 46.3333 38.5Z" fill="#2196F3"/>
<path d="M45.3333 27.8333C44.596 27.8333 44 27.236 44 26.5V23.8333C44 23.0973 44.596 22.5 45.3333 22.5C46.0707 22.5 46.6667 23.0973 46.6667 23.8333V26.5C46.6667 27.236 46.0707 27.8333 45.3333 27.8333Z" fill="white"/>
<path d="M45.3333 18.5H44.3333C44.2213 18.5 44.1107 18.5027 44 18.508C40.6627 18.6827 38 21.4533 38 24.8333V32.1667C38 35.6587 40.8413 38.5 44.3333 38.5H45.3333V27.8333C44.596 27.8333 44 27.236 44 26.5V23.8333C44 23.0973 44.596 22.5 45.3333 22.5V18.5Z" fill="#1D83D4"/>
<path d="M45.3333 22.5C44.596 22.5 44 23.0973 44 23.8333V26.5C44 27.236 44.596 27.8333 45.3333 27.8333V22.5Z" fill="#DEDEDE"/>
<defs>
<radialGradient id="paint0_radial" cx="0" cy="0" r="1" gradientUnits="userSpaceOnUse" gradientTransform="translate(32 59.0009) scale(27.5 3)">
<stop/>
<stop offset="1" stop-opacity="0"/>
</radialGradient>
<radialGradient id="paint1_radial" cx="0" cy="0" r="1" gradientUnits="userSpaceOnUse" gradientTransform="translate(51.8848 59.2509) scale(7.11871 1.25)">
<stop stop-color="#181818"/>
<stop offset="1" stop-color="#181818" stop-opacity="0"/>
</radialGradient>
<radialGradient id="paint2_radial" cx="0" cy="0" r="1" gradientUnits="userSpaceOnUse" gradientTransform="translate(12.1152 59.2509) rotate(180) scale(7.11871 1.25)">
<stop stop-color="#181818"/>
<stop offset="1" stop-color="#181818" stop-opacity="0"/>
</radialGradient>
<linearGradient id="paint3_linear" x1="33.5036" y1="60.5108" x2="33.5036" y2="58.0007" gradientUnits="userSpaceOnUse">
<stop stop-color="#181818" stop-opacity="0"/>
<stop offset="0.5" stop-color="#181818"/>
<stop offset="1" stop-color="#181818" stop-opacity="0"/>
</linearGradient>
<linearGradient id="paint4_linear" x1="32" y1="8.37478" x2="32" y2="58.4255" gradientUnits="userSpaceOnUse">
<stop stop-color="#FFB017"/>
<stop offset="0.0375031" stop-color="white" stop-opacity="0.235294"/>
<stop offset="0.966673" stop-color="white" stop-opacity="0.156863"/>
<stop offset="1" stop-color="white" stop-opacity="0.392157"/>
</linearGradient>
</defs>
</svg>
